<?xml version="1.0" encoding="UTF-8" standalone="no"?>
<svg
   xmlns="http://www.w3.org/2000/svg"
   xmlns:xlink="http://www.w3.org/1999/xlink"
   viewBox="0 0 431.11066 333.33331"
   height="333.33331"
   width="431.11066"
   xml:space="preserve"
   id="svg2"
   version="1.1"><defs
     id="defs6"><radialGradient
       id="radialGradient32"
       spreadMethod="pad"
       gradientTransform="matrix(471.00815,0,0,-471.00815,260,348)"
       gradientUnits="userSpaceOnUse"
       r="1"
       cy="0"
       cx="0"
       fy="0"
       fx="0"><stop
         id="stop24"
         offset="0"
         style="stop-opacity:1;stop-color:#326765" /><stop
         id="stop26"
         offset="0.00000026"
         style="stop-opacity:1;stop-color:#326765" /><stop
         id="stop28"
         offset="0.72589492"
         style="stop-opacity:1;stop-color:#27253d" /><stop
         id="stop30"
         offset="1"
         style="stop-opacity:1;stop-color:#27253d" /></radialGradient><clipPath
       id="clipPath42"
       clipPathUnits="userSpaceOnUse"><path
         id="path40"
         d="M 0,500 H 500 V 0 H 0 Z" /></clipPath><clipPath
       id="clipPath50"
       clipPathUnits="userSpaceOnUse"><path
         id="path48"
         d="M -102,478 H 527 V -9 h -629 z" /></clipPath><clipPath
       id="clipPath54"
       clipPathUnits="userSpaceOnUse"><path
         id="path52"
         d="M -102,478 H 527 V -9 h -629 z" /></clipPath><mask
       id="mask56"
       height="1"
       width="1"
       y="0"
       x="0"
       maskUnits="userSpaceOnUse"><g
         id="g66"><g
           id="g64"
           clip-path="url(#clipPath54)"><g
             id="g62"><g
               id="g60"
               transform="matrix(629,0,0,487,-102,-9)"><image
                 id="image58"
                 xlink:href="file:///home/xenia/%D0%97%D0%B0%D0%B3%D1%80%D1%83%D0%B7%D0%BA%D0%B8/2465933_img0.png"
                 transform="matrix(1,0,0,-1,0,1)"
                 preserveAspectRatio="none"
                 style="image-rendering:optimizeSpeed"
                 height="1"
                 width="1" /></g></g></g></g></mask><mask
       id="mask68"
       height="1"
       width="1"
       y="0"
       x="0"
       maskUnits="userSpaceOnUse"><image
         id="image70"
         xlink:href="file:///home/xenia/%D0%97%D0%B0%D0%B3%D1%80%D1%83%D0%B7%D0%BA%D0%B8/2465933_img1.png"
         preserveAspectRatio="none"
         style="image-rendering:optimizeSpeed"
         height="1"
         width="1" /></mask><clipPath
       id="clipPath104"
       clipPathUnits="userSpaceOnUse"><path
         id="path102"
         d="M 0,500 H 500 V 0 H 0 Z" /></clipPath><clipPath
       id="clipPath120"
       clipPathUnits="userSpaceOnUse"><path
         id="path118"
         d="M 0,500 H 500 V 0 H 0 Z" /></clipPath><clipPath
       id="clipPath152"
       clipPathUnits="userSpaceOnUse"><path
         id="path150"
         d="M 33,136 H 467 V 386 H 33 Z" /></clipPath><clipPath
       id="clipPath164"
       clipPathUnits="userSpaceOnUse"><path
         id="path162"
         d="M 33,136 H 467 V 386 H 33 Z" /></clipPath><clipPath
       id="clipPath172"
       clipPathUnits="userSpaceOnUse"><path
         id="path170"
         d="M 44,425 H 259 V 182 H 44 Z" /></clipPath><clipPath
       id="clipPath176"
       clipPathUnits="userSpaceOnUse"><path
         id="path174"
         d="M 44,425 H 259 V 182 H 44 Z" /></clipPath><mask
       id="mask178"
       height="1"
       width="1"
       y="0"
       x="0"
       maskUnits="userSpaceOnUse"><g
         id="g188"><g
           id="g186"
           clip-path="url(#clipPath176)"><g
             id="g184"><g
               id="g182"
               transform="matrix(215,0,0,243,44,182)"><image
                 id="image180"
                 xlink:href="file:///home/xenia/%D0%97%D0%B0%D0%B3%D1%80%D1%83%D0%B7%D0%BA%D0%B8/2465933_img3.png"
                 transform="matrix(1,0,0,-1,0,1)"
                 preserveAspectRatio="none"
                 style="image-rendering:optimizeSpeed"
                 height="1"
                 width="1" /></g></g></g></g></mask><mask
       id="mask190"
       height="1"
       width="1"
       y="0"
       x="0"
       maskUnits="userSpaceOnUse"><image
         id="image192"
         xlink:href="file:///home/xenia/%D0%97%D0%B0%D0%B3%D1%80%D1%83%D0%B7%D0%BA%D0%B8/2465933_img4.png"
         preserveAspectRatio="none"
         style="image-rendering:optimizeSpeed"
         height="1"
         width="1" /></mask><radialGradient
       id="radialGradient226"
       spreadMethod="pad"
       gradientTransform="matrix(81.520431,-60.5243,-60.5243,-81.520431,164.68721,269.31436)"
       gradientUnits="userSpaceOnUse"
       r="1"
       cy="0"
       cx="0"
       fy="0"
       fx="0"><stop
         id="stop220"
         offset="0"
         style="stop-opacity:1;stop-color:#27253d" /><stop
         id="stop222"
         offset="0.436095"
         style="stop-opacity:1;stop-color:#435051" /><stop
         id="stop224"
         offset="1"
         style="stop-opacity:1;stop-color:#7da87b" /></radialGradient><radialGradient
       id="radialGradient248"
       spreadMethod="pad"
       gradientTransform="matrix(114.79711,-29.50243,-29.50243,-114.79711,146.68234,249.67667)"
       gradientUnits="userSpaceOnUse"
       r="1"
       cy="0"
       cx="0"
       fy="0"
       fx="0"><stop
         id="stop242"
         offset="0"
         style="stop-opacity:1;stop-color:#27253d" /><stop
         id="stop244"
         offset="0.32658"
         style="stop-opacity:1;stop-color:#435051" /><stop
         id="stop246"
         offset="1"
         style="stop-opacity:1;stop-color:#7da87b" /></radialGradient><clipPath
       id="clipPath258"
       clipPathUnits="userSpaceOnUse"><path
         id="path256"
         d="M 33,136 H 467 V 386 H 33 Z" /></clipPath><clipPath
       id="clipPath270"
       clipPathUnits="userSpaceOnUse"><path
         id="path268"
         d="M 132,366 H 280 V 181 H 132 Z" /></clipPath><clipPath
       id="clipPath274"
       clipPathUnits="userSpaceOnUse"><path
         id="path272"
         d="M 132,366 H 280 V 181 H 132 Z" /></clipPath><mask
       id="mask276"
       height="1"
       width="1"
       y="0"
       x="0"
       maskUnits="userSpaceOnUse"><g
         id="g286"><g
           id="g284"
           clip-path="url(#clipPath274)"><g
             id="g282"><g
               id="g280"
               transform="matrix(148,0,0,185,132,181)"><image
                 id="image278"
                 xlink:href="file:///home/xenia/%D0%97%D0%B0%D0%B3%D1%80%D1%83%D0%B7%D0%BA%D0%B8/2465933_img6.png"
                 transform="matrix(1,0,0,-1,0,1)"
                 preserveAspectRatio="none"
                 style="image-rendering:optimizeSpeed"
                 height="1"
                 width="1" /></g></g></g></g></mask><mask
       id="mask288"
       height="1"
       width="1"
       y="0"
       x="0"
       maskUnits="userSpaceOnUse"><image
         id="image290"
         xlink:href="file:///home/xenia/%D0%97%D0%B0%D0%B3%D1%80%D1%83%D0%B7%D0%BA%D0%B8/2465933_img7.png"
         preserveAspectRatio="none"
         style="image-rendering:optimizeSpeed"
         height="1"
         width="1" /></mask><clipPath
       id="clipPath316"
       clipPathUnits="userSpaceOnUse"><path
         id="path314"
         d="M 1,395 H 178 V 100 H 1 Z" /></clipPath><clipPath
       id="clipPath320"
       clipPathUnits="userSpaceOnUse"><path
         id="path318"
         d="M 1,395 H 178 V 100 H 1 Z" /></clipPath><mask
       id="mask322"
       height="1"
       width="1"
       y="0"
       x="0"
       maskUnits="userSpaceOnUse"><g
         id="g332"><g
           id="g330"
           clip-path="url(#clipPath320)"><g
             id="g328"><g
               id="g326"
               transform="matrix(177,0,0,295,1,100)"><image
                 id="image324"
                 xlink:href="file:///home/xenia/%D0%97%D0%B0%D0%B3%D1%80%D1%83%D0%B7%D0%BA%D0%B8/2465933_img9.png"
                 transform="matrix(1,0,0,-1,0,1)"
                 preserveAspectRatio="none"
                 style="image-rendering:optimizeSpeed"
                 height="1"
                 width="1" /></g></g></g></g></mask><mask
       id="mask334"
       height="1"
       width="1"
       y="0"
       x="0"
       maskUnits="userSpaceOnUse"><image
         id="image336"
         xlink:href="file:///home/xenia/%D0%97%D0%B0%D0%B3%D1%80%D1%83%D0%B7%D0%BA%D0%B8/2465933_img10.png"
         preserveAspectRatio="none"
         style="image-rendering:optimizeSpeed"
         height="1"
         width="1" /></mask><clipPath
       id="clipPath398"
       clipPathUnits="userSpaceOnUse"><path
         id="path396"
         d="M -28,285 H 112 V 142 H -28 Z" /></clipPath><clipPath
       id="clipPath402"
       clipPathUnits="userSpaceOnUse"><path
         id="path400"
         d="M -28,285 H 112 V 142 H -28 Z" /></clipPath><mask
       id="mask404"
       height="1"
       width="1"
       y="0"
       x="0"
       maskUnits="userSpaceOnUse"><g
         id="g414"><g
           id="g412"
           clip-path="url(#clipPath402)"><g
             id="g410"><g
               id="g408"
               transform="matrix(140,0,0,143,-28,142)"><image
                 id="image406"
                 xlink:href="file:///home/xenia/%D0%97%D0%B0%D0%B3%D1%80%D1%83%D0%B7%D0%BA%D0%B8/2465933_img12.png"
                 transform="matrix(1,0,0,-1,0,1)"
                 preserveAspectRatio="none"
                 style="image-rendering:optimizeSpeed"
                 height="1"
                 width="1" /></g></g></g></g></mask><mask
       id="mask416"
       height="1"
       width="1"
       y="0"
       x="0"
       maskUnits="userSpaceOnUse"><image
         id="image418"
         xlink:href="file:///home/xenia/%D0%97%D0%B0%D0%B3%D1%80%D1%83%D0%B7%D0%BA%D0%B8/2465933_img13.png"
         preserveAspectRatio="none"
         style="image-rendering:optimizeSpeed"
         height="1"
         width="1" /></mask><clipPath
       id="clipPath472"
       clipPathUnits="userSpaceOnUse"><path
         id="path470"
         d="M -22,292 H 196 V 54 H -22 Z" /></clipPath><clipPath
       id="clipPath476"
       clipPathUnits="userSpaceOnUse"><path
         id="path474"
         d="M -22,292 H 196 V 54 H -22 Z" /></clipPath><mask
       id="mask478"
       height="1"
       width="1"
       y="0"
       x="0"
       maskUnits="userSpaceOnUse"><g
         id="g488"><g
           id="g486"
           clip-path="url(#clipPath476)"><g
             id="g484"><g
               id="g482"
               transform="matrix(218,0,0,238,-22,54)"><image
                 id="image480"
                 xlink:href="file:///home/xenia/%D0%97%D0%B0%D0%B3%D1%80%D1%83%D0%B7%D0%BA%D0%B8/2465933_img15.png"
                 transform="matrix(1,0,0,-1,0,1)"
                 preserveAspectRatio="none"
                 style="image-rendering:optimizeSpeed"
                 height="1"
                 width="1" /></g></g></g></g></mask><mask
       id="mask490"
       height="1"
       width="1"
       y="0"
       x="0"
       maskUnits="userSpaceOnUse"><image
         id="image492"
         xlink:href="file:///home/xenia/%D0%97%D0%B0%D0%B3%D1%80%D1%83%D0%B7%D0%BA%D0%B8/2465933_img16.png"
         preserveAspectRatio="none"
         style="image-rendering:optimizeSpeed"
         height="1"
         width="1" /></mask><radialGradient
       id="radialGradient526"
       spreadMethod="pad"
       gradientTransform="matrix(101.53213,0,0,-101.53213,119.88914,159.60883)"
       gradientUnits="userSpaceOnUse"
       r="1"
       cy="0"
       cx="0"
       fy="0"
       fx="0"><stop
         id="stop520"
         offset="0"
         style="stop-opacity:1;stop-color:#27253d" /><stop
         id="stop522"
         offset="0.436095"
         style="stop-opacity:1;stop-color:#435051" /><stop
         id="stop524"
         offset="1"
         style="stop-opacity:1;stop-color:#7da87b" /></radialGradient><radialGradient
       id="radialGradient548"
       spreadMethod="pad"
       gradientTransform="matrix(109.75764,44.744118,44.744118,-109.75764,117.1392,133.1088)"
       gradientUnits="userSpaceOnUse"
       r="1"
       cy="0"
       cx="0"
       fy="0"
       fx="0"><stop
         id="stop542"
         offset="0"
         style="stop-opacity:1;stop-color:#27253d" /><stop
         id="stop544"
         offset="0.32658"
         style="stop-opacity:1;stop-color:#435051" /><stop
         id="stop546"
         offset="1"
         style="stop-opacity:1;stop-color:#7da87b" /></radialGradient><clipPath
       id="clipPath558"
       clipPathUnits="userSpaceOnUse"><path
         id="path556"
         d="M 33,136 H 467 V 386 H 33 Z" /></clipPath><clipPath
       id="clipPath566"
       clipPathUnits="userSpaceOnUse"><path
         id="path564"
         d="M 113,325 H 303 V 75 H 113 Z" /></clipPath><clipPath
       id="clipPath570"
       clipPathUnits="userSpaceOnUse"><path
         id="path568"
         d="M 113,325 H 303 V 75 H 113 Z" /></clipPath><mask
       id="mask572"
       height="1"
       width="1"
       y="0"
       x="0"
       maskUnits="userSpaceOnUse"><g
         id="g582"><g
           id="g580"
           clip-path="url(#clipPath570)"><g
             id="g578"><g
               id="g576"
               transform="matrix(190,0,0,250,113,75)"><image
                 id="image574"
                 xlink:href="file:///home/xenia/%D0%97%D0%B0%D0%B3%D1%80%D1%83%D0%B7%D0%BA%D0%B8/2465933_img18.png"
                 transform="matrix(1,0,0,-1,0,1)"
                 preserveAspectRatio="none"
                 style="image-rendering:optimizeSpeed"
                 height="1"
                 width="1" /></g></g></g></g></mask><mask
       id="mask584"
       height="1"
       width="1"
       y="0"
       x="0"
       maskUnits="userSpaceOnUse"><image
         id="image586"
         xlink:href="file:///home/xenia/%D0%97%D0%B0%D0%B3%D1%80%D1%83%D0%B7%D0%BA%D0%B8/2465933_img19.png"
         preserveAspectRatio="none"
         style="image-rendering:optimizeSpeed"
         height="1"
         width="1" /></mask><radialGradient
       id="radialGradient620"
       spreadMethod="pad"
       gradientTransform="matrix(120.98967,0,0,-120.98967,198.03183,150.37872)"
       gradientUnits="userSpaceOnUse"
       r="1"
       cy="0"
       cx="0"
       fy="0"
       fx="0"><stop
         id="stop614"
         offset="0"
         style="stop-opacity:1;stop-color:#27253d" /><stop
         id="stop616"
         offset="0.32658"
         style="stop-opacity:1;stop-color:#435051" /><stop
         id="stop618"
         offset="1"
         style="stop-opacity:1;stop-color:#7da87b" /></radialGradient><clipPath
       id="clipPath630"
       clipPathUnits="userSpaceOnUse"><path
         id="path628"
         d="M 33,136 H 467 V 386 H 33 Z" /></clipPath><clipPath
       id="clipPath674"
       clipPathUnits="userSpaceOnUse"><path
         id="path672"
         d="M 79,223 H 239 V 56 H 79 Z" /></clipPath><clipPath
       id="clipPath678"
       clipPathUnits="userSpaceOnUse"><path
         id="path676"
         d="M 79,223 H 239 V 56 H 79 Z" /></clipPath><mask
       id="mask680"
       height="1"
       width="1"
       y="0"
       x="0"
       maskUnits="userSpaceOnUse"><g
         id="g690"><g
           id="g688"
           clip-path="url(#clipPath678)"><g
             id="g686"><g
               id="g684"
               transform="matrix(160,0,0,167,79,56)"><image
                 id="image682"
                 xlink:href="file:///home/xenia/%D0%97%D0%B0%D0%B3%D1%80%D1%83%D0%B7%D0%BA%D0%B8/2465933_img21.png"
                 transform="matrix(1,0,0,-1,0,1)"
                 preserveAspectRatio="none"
                 style="image-rendering:optimizeSpeed"
                 height="1"
                 width="1" /></g></g></g></g></mask><mask
       id="mask692"
       height="1"
       width="1"
       y="0"
       x="0"
       maskUnits="userSpaceOnUse"><image
         id="image694"
         xlink:href="file:///home/xenia/%D0%97%D0%B0%D0%B3%D1%80%D1%83%D0%B7%D0%BA%D0%B8/2465933_img22.png"
         preserveAspectRatio="none"
         style="image-rendering:optimizeSpeed"
         height="1"
         width="1" /></mask><radialGradient
       id="radialGradient728"
       spreadMethod="pad"
       gradientTransform="matrix(91.980034,-21.924341,-21.924341,-91.980034,151.78349,121.00736)"
       gradientUnits="userSpaceOnUse"
       r="1"
       cy="0"
       cx="0"
       fy="0"
       fx="0"><stop
         id="stop722"
         offset="0"
         style="stop-opacity:1;stop-color:#326765" /><stop
         id="stop724"
         offset="0.57555613"
         style="stop-opacity:1;stop-color:#f5f5c6" /><stop
         id="stop726"
         offset="1"
         style="stop-opacity:1;stop-color:#f5f5c6" /></radialGradient><clipPath
       id="clipPath738"
       clipPathUnits="userSpaceOnUse"><path
         id="path736"
         d="M 33,136 H 467 V 386 H 33 Z" /></clipPath><clipPath
       id="clipPath774"
       clipPathUnits="userSpaceOnUse"><path
         id="path772"
         d="M 160,210 H 349 V 43 H 160 Z" /></clipPath><clipPath
       id="clipPath778"
       clipPathUnits="userSpaceOnUse"><path
         id="path776"
         d="M 160,210 H 349 V 43 H 160 Z" /></clipPath><mask
       id="mask780"
       height="1"
       width="1"
       y="0"
       x="0"
       maskUnits="userSpaceOnUse"><g
         id="g790"><g
           id="g788"
           clip-path="url(#clipPath778)"><g
             id="g786"><g
               id="g784"
               transform="matrix(189,0,0,167,160,43)"><image
                 id="image782"
                 xlink:href="file:///home/xenia/%D0%97%D0%B0%D0%B3%D1%80%D1%83%D0%B7%D0%BA%D0%B8/2465933_img24.png"
                 transform="matrix(1,0,0,-1,0,1)"
                 preserveAspectRatio="none"
                 style="image-rendering:optimizeSpeed"
                 height="1"
                 width="1" /></g></g></g></g></mask><mask
       id="mask792"
       height="1"
       width="1"
       y="0"
       x="0"
       maskUnits="userSpaceOnUse"><image
         id="image794"
         xlink:href="file:///home/xenia/%D0%97%D0%B0%D0%B3%D1%80%D1%83%D0%B7%D0%BA%D0%B8/2465933_img25.png"
         preserveAspectRatio="none"
         style="image-rendering:optimizeSpeed"
         height="1"
         width="1" /></mask><clipPath
       id="clipPath848"
       clipPathUnits="userSpaceOnUse"><path
         id="path846"
         d="M 20,194 H 154 V 54 H 20 Z" /></clipPath><clipPath
       id="clipPath852"
       clipPathUnits="userSpaceOnUse"><path
         id="path850"
         d="M 20,194 H 154 V 54 H 20 Z" /></clipPath><mask
       id="mask854"
       height="1"
       width="1"
       y="0"
       x="0"
       maskUnits="userSpaceOnUse"><g
         id="g864"><g
           id="g862"
           clip-path="url(#clipPath852)"><g
             id="g860"><g
               id="g858"
               transform="matrix(134,0,0,140,20,54)"><image
                 id="image856"
                 xlink:href="file:///home/xenia/%D0%97%D0%B0%D0%B3%D1%80%D1%83%D0%B7%D0%BA%D0%B8/2465933_img27.png"
                 transform="matrix(1,0,0,-1,0,1)"
                 preserveAspectRatio="none"
                 style="image-rendering:optimizeSpeed"
                 height="1"
                 width="1" /></g></g></g></g></mask><mask
       id="mask866"
       height="1"
       width="1"
       y="0"
       x="0"
       maskUnits="userSpaceOnUse"><image
         id="image868"
         xlink:href="file:///home/xenia/%D0%97%D0%B0%D0%B3%D1%80%D1%83%D0%B7%D0%BA%D0%B8/2465933_img28.png"
         preserveAspectRatio="none"
         style="image-rendering:optimizeSpeed"
         height="1"
         width="1" /></mask><clipPath
       id="clipPath922"
       clipPathUnits="userSpaceOnUse"><path
         id="path920"
         d="M 0,500 H 500 V 0 H 0 Z" /></clipPath></defs><g
     transform="matrix(1.3333333,0,0,-1.3333333,-43.999999,514.66665)"
     id="g10"><g
       id="g146"><g
         clip-path="url(#clipPath152)"
         id="g148"><g
           transform="translate(116.5,394.6665)"
           id="g154"><path
             id="path156"
             style="fill:#27253d;fill-opacity:1;fill-rule:nonzero;stroke:none"
             d="m 0,0 c 27.262,1.949 64.5,30.333 105.167,13.667 52.488,-21.512 26,-72.334 9.333,-93 -13.987,-17.345 -29.592,-50.381 40.667,-63 68.666,-12.334 84.666,-59 84.666,-93 0,-34.724 -36.666,-70.5 -77.333,-75.834 -40.667,-5.333 -280.5,-5.5 -280.5,-5.5 l -40,340 c 0,0 118.173,-26.18 158,-23.333" /></g></g></g><g
       id="g158"><g
         clip-path="url(#clipPath164)"
         id="g160"><g
           id="g166"><g
             id="g168" /><g
             id="g206"><g
               id="g204"
               clip-path="url(#clipPath172)"><g
                 id="g202"><g
                   id="g194" /><g
                   id="g200"
                   mask="url(#mask178)"><g
                     id="g198"
                     transform="matrix(215,0,0,243,44,182)"><image
                       id="image196"
                       mask="url(#mask190)"
                       xlink:href="file:///home/xenia/%D0%97%D0%B0%D0%B3%D1%80%D1%83%D0%B7%D0%BA%D0%B8/2465933_img5.png"
                       transform="matrix(1,0,0,-1,0,1)"
                       preserveAspectRatio="none"
                       style="image-rendering:optimizeSpeed"
                       height="1"
                       width="1" /></g></g></g></g></g></g></g></g><g
       id="g208"><g
         id="g210"><g
           id="g216"><g
             id="g218"><path
               id="path228"
               style="fill:url(#radialGradient226);stroke:none"
               d="m 157.978,271.73 c 3.164,-0.348 6.644,-7.979 7.941,-9.619 v 0 c 4.967,-6.272 13.016,-7.476 20.159,-4.313 v 0 c 8.487,3.757 14.567,8.835 19.971,16.484 v 0 c 5.661,8.014 7.581,17.421 7.842,27.13 v 0 c 0.262,9.739 -3.095,19.419 -6.355,28.542 v 0 c -1.698,4.755 -4.757,7.649 -7.561,11.658 v 0 c -1.199,1.715 -1.279,3.547 -2.34,5.247 v 0 c -0.584,-7.059 -2.778,-12.785 -6.347,-18.895 v 0 c -4.152,-7.106 -12.05,-19.615 -20.967,-21.364 v 0 c -2.833,-0.556 -3.751,0.179 -3.456,2.88 v 0 c 0.405,3.707 3.911,5.947 6.525,8.114 v 0 c 5.786,4.794 12.589,8.473 16.278,15.323 v 0 c 3.63,6.742 3.051,13.644 -0.9,20.271 v 0 c -1.454,2.436 -3.13,3.148 -5.658,4.8 v 0 c -4.577,2.996 -7.332,6.008 -10.43,10.518 v 0 c -2.756,4.014 -6.371,8.665 -11.104,10.382 v 0 c -1.248,0.453 -2.379,0.695 -3.429,0.769 v 0 c 4.568,-20.583 7.473,-54.775 -0.169,-107.927" /></g></g></g></g><g
       id="g230"><g
         id="g232"><g
           id="g238"><g
             id="g240"><path
               id="path250"
               style="fill:url(#radialGradient248);stroke:none"
               d="m 146.955,374.051 c -2.817,-2.346 -6.829,-6.022 -10.773,-5.637 v 0 c -0.018,-0.393 -0.335,-0.668 0.083,-0.592 v 0 c 0.184,-4.313 0.148,-8.661 0.768,-12.993 v 0 c 0.613,-4.292 1.625,-8.567 3.175,-12.621 v 0 c 0.601,-1.569 5.534,-9.886 2.365,-10.937 v 0 c -3.583,-1.188 -7.05,8.21 -8.208,10.209 v 0 c -2.146,3.707 -5.248,7.188 -6.781,11.232 v 0 c -1.399,3.692 -1.975,10.15 0.894,13.232 v 0 c -8.024,-0.364 -11.132,-8.83 -17.602,-11.87 v 0 c 0.34,-2.984 -0.326,-5.981 0.469,-8.945 v 0 c 0.791,-2.948 2.177,-5.946 3.471,-8.706 v 0 c 2.088,-4.457 4.255,-8.504 7.846,-11.948 v 0 c 4.992,-4.788 10.692,-9.649 14.698,-15.32 v 0 c 1.701,-2.409 1.289,-4.859 -2.112,-3.661 v 0 c -3.546,1.249 -6.471,4.806 -9.15,7.238 v 0 c -3.441,3.124 -7.196,6.189 -11.048,8.786 v 0 c -4.438,2.992 -8.055,5.664 -10.327,10.649 v 0 c -2.04,4.474 -1.232,8.802 -2.456,13.311 v 0 c -4.469,-3.333 -7.969,-11.383 -9.095,-16.723 v 0 c -0.738,-3.501 -1.075,-6.968 -1.901,-10.465 v 0 c -0.433,-1.834 -0.99,-3.771 -0.881,-5.67 v 0 c 6.948,-3.317 13.251,-7.934 20.368,-10.924 v 0 c 3.573,-1.501 24.005,-11.636 18.097,-17.175 v 0 c -2.382,-2.234 -7.761,-2.208 -10.698,-1.424 v 0 c -4.418,1.181 -8.767,4.682 -12.297,7.529 v 0 c -4.045,3.265 -7.979,6.726 -10.823,11.124 v 0 c -1.432,2.216 -2.565,5.168 -4.382,7.025 v 0 c -3.76,-20.284 8.647,-39.914 25.36,-50.592 v 0 c 8.236,-5.261 18.831,-5.816 27.967,-2.713 v 0 c 1.904,0.647 3.797,1.623 5.466,2.877 v 0 c -2.099,-3.229 -4.838,-6.059 -7.842,-8.421 v 0 c -7.595,-5.97 -17.371,-12.885 -20.983,-22.24 v 0 c 2.776,0.245 4.466,0.382 6.212,2.665 v 0 c 2.147,2.807 3.531,6.05 6.011,8.629 v 0 c 3.014,3.132 6.255,6.084 9.35,9.154 v 0 c 5.455,5.414 11.314,10.432 13.964,17.792 v 0 c 0.525,1.457 1.217,3.625 1.553,5.838 v 0 c 0.088,0.002 0.177,-0.024 0.265,-0.034 v 0 c 7.642,53.152 4.737,87.344 0.169,107.927 v 0 c -0.231,0.016 -0.459,0.024 -0.682,0.024 v 0 c -4.024,0 -6.856,-2.587 -10.51,-5.63" /></g></g></g></g><g
       id="g252"><g
         clip-path="url(#clipPath258)"
         id="g254"><g
           transform="translate(73.2793,263.7905)"
           id="g260"><path
             id="path262"
             style="fill:#f5f5c6;fill-opacity:1;fill-rule:nonzero;stroke:none"
             d="M 0,0 C 9.142,-2.194 17.248,-2.887 25.979,1.839 34.375,6.384 35.337,14.844 38.674,22.812 32.779,17.314 28.917,9.083 20.548,6.797 16.34,5.647 11.854,5.71 7.615,4.708 4.896,4.065 2.337,4.707 -0.406,4.308 c -0.321,1.148 -0.565,2.375 -0.665,3.548 3.81,-0.552 9.354,0.418 13.037,1.343 6.53,1.64 12.847,6.109 18.287,9.911 6.368,4.452 9.534,13.375 6.954,20.527 C 35.102,30.029 26.812,21.631 17.86,18.338 12.015,16.188 4.187,9.171 -2.468,11.156 c -0.62,3.419 0.63,4.35 3.555,5.419 2.598,0.95 5.232,1.821 7.824,2.785 4.695,1.746 7.081,4.436 10.53,7.775 4.228,4.091 9.512,8.16 12.131,13.558 1.746,3.599 1.059,7.141 1.499,10.984 C 29.44,49 25.974,44.046 22.66,40.721 17.396,35.438 11.998,30.656 5.959,26.295 4.501,25.243 -2.514,19.584 -4.279,20.407 c -1.853,0.862 -0.103,4.844 0.664,5.877 3.011,4.052 8.688,4.502 12.062,8.275 2.703,3.022 4.877,6.042 7.863,8.822 2.508,2.335 5.079,4.66 7.213,7.347 1.456,1.834 3.921,4.171 4.735,6.464 0.649,1.827 -0.075,3.197 -0.147,5 -0.146,3.679 0.043,5.126 -2.623,7.987 C 25.272,58.56 12.648,52.484 5.71,45.001 3.414,42.525 1.064,39.949 -1.098,37.359 c -1.194,-1.431 -2.091,-3.476 -3.715,-4.527 -2.894,-1.873 -4.783,0.501 -3.309,3.507 0.456,-0.043 1.387,1.963 2.017,2.814 1.583,2.14 3.722,3.411 5.721,5.135 5.071,4.374 9.042,9.044 12.505,14.669 2.765,4.492 6.548,8.843 8.75,13.641 0.731,1.592 1.532,3.946 1.421,5.727 -0.109,1.757 -1.378,3.135 -1.855,4.794 C 18.708,75.59 13.855,70.82 8.98,64.989 3.294,58.185 -1.45,50.285 -7.488,43.82 c -1.58,-1.691 -2.575,-2.297 -3.22,0.301 -0.942,3.792 2.662,7.622 4.872,10.206 3.12,3.646 5.836,7.506 8.628,11.401 2.991,4.173 4.184,7.473 5.592,12.382 0.914,3.185 2.717,7.14 2.389,10.533 C 10.545,91.009 9.05,92.03 7.487,93.589 9.311,88.363 5.055,82.316 2.914,77.747 0.775,73.182 -2.412,69.111 -5.102,64.85 c -2.039,-3.233 -3.759,-7.083 -6.04,-10.128 -1.274,-1.702 -2.114,-2.376 -3.249,-0.145 -1.671,3.283 0.919,7.154 2.725,9.673 5.268,7.347 9,16.413 10.72,25.293 1.088,5.616 -2.068,10.272 -4.841,14.759 1.891,-7.209 -0.16,-14.666 -3.576,-21.016 -2.302,-4.278 -4.433,-8.639 -6.02,-13.237 -0.668,-1.935 -3.564,-7.763 -5.004,-2.522 -0.587,2.138 0.82,5.66 1.305,7.7 0.791,3.33 1.587,6.659 2.363,9.992 1.32,5.672 2.21,10.761 0.219,16.3 -1.018,2.832 -0.962,3.098 -3.531,3.996 -1.293,0.451 -3.671,2.079 -4.719,1.872 1.349,-4.282 3.666,-7.228 3.41,-11.995 -0.127,-2.368 -0.838,-13.879 -3.508,-14.89 -3.304,-1.25 -1.038,13.67 -1.05,15.801 -0.019,3.25 0.188,11.464 -2.963,13.55 -3.389,-5.026 0.65,-13.698 -3.339,-18.435 -1.725,0.872 -1.86,4.079 -2.581,5.772 -1.119,2.631 -2.97,4.43 -4.787,6.578 -0.557,0.659 -1.806,3.122 -2.716,3.128 -0.832,0.005 -1.967,-2.022 -3.037,-2.388 -1.149,-0.394 -1.712,0.532 -2.935,-0.311 -1.339,-0.922 -1.762,-4.207 -2.357,-5.647 -1.235,-2.987 -3.804,-5.984 -2.247,-9.35 3.328,-7.199 14.049,-11.331 21.024,-13.816 1.605,-0.572 8.428,-2.195 7.879,-5.067 -0.556,-2.905 -8.844,1.313 -10.497,2.105 -4.382,2.098 -8.105,5.552 -12.371,7.926 -2.467,1.372 -5.323,3.212 -6.471,5.941 -0.72,-5.028 -3.425,-8.294 0.912,-12.197 6.741,-6.066 16.268,-11.072 24.885,-13.496 2.711,-0.762 5.783,-1.749 8.077,-3.381 3.726,-2.652 2.074,-4.597 -1.973,-3.735 -4.306,0.918 -8.062,3.147 -11.926,5.168 -3.4,1.778 -6.817,2.906 -10.349,4.346 -3.426,1.396 -6.841,2.063 -9.484,4.78 -1.453,1.494 -2.583,2.942 -3.611,4.694 -0.002,-2.348 -0.865,-5.091 -0.383,-7.524 0.576,-2.911 3.583,-5.728 6.072,-7.526 4.656,-3.361 10.2,-6.152 15.727,-7.754 5.232,-1.518 10.671,-1.838 15.902,-3.498 2.023,-0.642 3.669,-0.76 5.224,-2.362 2.839,-2.924 1.83,-4.895 -2.129,-4.281 -4.123,0.641 -8.064,2.356 -12.255,2.663 -4.742,0.346 -9.539,0.077 -14.184,1.359 -4.887,1.35 -13.461,3.951 -15.613,8.867 -0.531,-4.421 -1.322,-8.326 2.994,-12.225 8.547,-7.722 20.859,-8.118 31.613,-9.267 2.175,-0.232 18.171,-0.78 15.319,-6.554 -0.98,-1.983 -9.218,0.102 -11.209,0.418 -4.419,0.7 -8.643,2.349 -13.003,3.353 -3.907,0.899 -8.365,2.508 -12.323,2.687 -3.18,0.144 -9.612,-0.744 -11.687,2.487 0.558,-2.06 1.821,-4.937 2.967,-6.846 1.952,-3.252 6.453,-4.597 9.827,-5.849 8.682,-3.22 20.529,-6.125 29.706,-4.043 1.781,0.404 6.658,2.277 7.92,0.04 2.174,-3.855 -4.759,-5.124 -6.629,-5.326 -5.085,-0.548 -8.797,0.103 -13.432,2.092 -3.592,1.541 -6.827,0.006 -10.519,0.745 -3.616,0.723 -6.744,2.758 -10.197,3.896 -1.464,0.483 -2.823,0.777 -4.204,1.53 -0.816,0.445 -1.426,1.903 -1.633,1.075 2.424,-8.426 10.127,-10.625 17.608,-13.052 5.894,-1.913 10.61,-3.411 16.878,-3.028 2.394,0.147 4.833,-0.02 7.145,0.751 1.613,0.538 2.89,1.939 4.485,2.348 3.305,0.847 4.22,-1.502 1.612,-3.465 -3.867,-2.911 -9.505,-2.163 -13.973,-3.041 -4.855,-0.954 -9.573,-2.523 -14.594,-2.359 -4.766,0.156 -7.013,2.287 -11.1,3.959 9.259,-4.606 23.626,-15.063 34.78,-8.963 2.055,1.124 4.997,5.011 7.473,4.848 1.769,-5.051 3.531,-10.479 4.782,-15.73 1.341,-5.632 5.293,-11.739 5.605,-17.421 0.623,0.4 1.462,0.572 2.307,0.47 -0.887,2.931 -2.955,6.01 -3.954,9.198 -1.126,3.59 -1.903,7.266 -3.012,10.839 C 2.331,-11.385 -3.118,-2.193 0,0" /></g><g
           id="g264"><g
             id="g266" /><g
             id="g304"><g
               style="opacity:0.80000299"
               id="g302"
               clip-path="url(#clipPath270)"><g
                 id="g300"><g
                   id="g292" /><g
                   id="g298"
                   mask="url(#mask276)"><g
                     id="g296"
                     transform="matrix(148,0,0,185,132,181)"><image
                       id="image294"
                       mask="url(#mask288)"
                       xlink:href="file:///home/xenia/%D0%97%D0%B0%D0%B3%D1%80%D1%83%D0%B7%D0%BA%D0%B8/2465933_img8.png"
                       transform="matrix(1,0,0,-1,0,1)"
                       preserveAspectRatio="none"
                       style="image-rendering:optimizeSpeed"
                       height="1"
                       width="1" /></g></g></g></g></g></g><g
           transform="translate(183.6265,234.2373)"
           id="g306"><path
             id="path308"
             style="fill:#326765;fill-opacity:1;fill-rule:nonzero;stroke:none"
             d="m 0,0 c 5.041,-8.194 10.416,-14.553 20.16,-17.436 9.368,-2.77 16.177,2.667 24.352,6.033 -8.244,0.273 -16.99,-2.903 -24.708,1.485 C 15.923,-7.712 12.717,-4.425 8.92,-2.089 6.485,-0.591 5.094,1.724 2.817,3.415 3.414,4.479 4.123,5.546 4.898,6.468 7.261,3.315 11.981,0.014 15.319,-1.978 21.236,-5.506 29.044,-6.83 35.734,-8.004 43.565,-9.378 52.307,-5.196 55.603,1.852 47.137,-3.592 35.061,-3.691 26.193,0.39 20.403,3.054 9.66,3.623 6.27,9.869 c 2.021,2.926 3.6,2.698 6.492,1.36 2.569,-1.189 5.108,-2.46 7.682,-3.633 4.666,-2.126 8.339,-1.901 13.25,-1.973 6.021,-0.088 12.79,-0.956 18.588,1.064 3.866,1.348 5.926,4.412 9.021,6.879 -4.565,0.684 -10.657,-0.404 -15.461,-0.42 -7.632,-0.027 -15,0.408 -22.527,1.609 -1.817,0.289 -10.989,1.256 -11.675,3.128 -0.72,1.963 3.425,3.586 4.728,3.78 5.109,0.762 9.549,-3.013 14.721,-2.716 4.142,0.238 7.899,0.857 12.072,0.715 3.506,-0.12 7.048,-0.291 10.536,0.114 2.38,0.278 5.855,0.191 8.102,1.265 1.79,0.855 2.255,2.372 3.506,3.73 2.552,2.773 3.734,3.686 3.867,7.685 -8.549,-8.266 -22.089,-3.551 -32.524,-3.962 -3.453,-0.137 -7.017,-0.306 -10.456,-0.622 -1.899,-0.175 -4.027,-1.009 -5.963,-0.597 -3.45,0.733 -3.105,3.818 0.136,4.932 0.299,-0.36 2.423,0.421 3.494,0.583 2.694,0.408 5.162,-0.217 7.856,-0.411 6.836,-0.493 13.088,0.024 19.662,1.6 5.249,1.258 11.135,1.679 16.197,3.565 1.68,0.627 3.962,1.754 5.168,3.125 1.189,1.352 1.265,3.269 2.118,4.816 -6.693,-4.209 -13.656,-4.161 -21.402,-4.866 -9.037,-0.823 -18.183,-3.123 -27.229,-3.447 -2.367,-0.084 -3.526,0.195 -2.118,2.544 2.057,3.43 7.436,3.602 10.905,3.878 4.895,0.389 9.653,1.226 14.49,2.032 5.183,0.864 8.431,2.394 12.999,4.935 2.963,1.648 7.127,3.212 9.34,5.908 1.545,1.881 1.199,3.701 1.192,5.96 C 70.583,57.323 63.13,56.015 58.278,54.25 53.43,52.485 48.178,51.838 43.15,50.691 39.336,49.822 35.308,48.274 31.456,47.713 c -2.154,-0.313 -3.249,-0.194 -2.46,2.244 1.161,3.586 5.835,4.522 8.962,5.042 9.127,1.52 18.381,5.395 26.043,10.589 4.845,3.285 5.922,8.94 7.153,14.196 C 67.317,73.192 60.443,69.269 53.379,67.133 48.621,65.695 43.926,64.074 39.453,61.888 c -1.881,-0.92 -8.191,-3.053 -5.448,1.787 1.119,1.973 4.683,3.51 6.508,4.638 2.98,1.842 5.961,3.68 8.931,5.536 5.055,3.157 9.376,6.203 11.934,11.657 1.308,2.787 1.541,2.94 0.328,5.447 -0.611,1.261 -1.159,4.159 -2.069,4.766 -2.115,-4.078 -2.563,-7.887 -6.193,-11.158 -1.802,-1.624 -10.633,-9.455 -13.299,-8.258 -3.299,1.48 9.122,10.658 10.653,12.212 2.334,2.368 8.418,8.173 7.641,11.961 -6.087,-1.194 -9.424,-10.398 -15.737,-10.95 -0.622,1.878 1.597,4.3 2.299,6.049 1.088,2.715 1.046,5.356 1.281,8.226 0.072,0.88 0.947,3.567 0.291,4.228 -0.599,0.605 -2.886,-0.044 -3.927,0.464 -1.116,0.545 -0.855,1.622 -2.351,1.896 -1.636,0.298 -4.316,-1.778 -5.788,-2.392 -3.053,-1.272 -7.08,-1.589 -8.383,-5.153 -2.788,-7.623 1.997,-18.363 5.257,-25.203 0.751,-1.575 4.525,-7.68 2.052,-9.365 -2.502,-1.705 -5.462,7.341 -6.089,9.109 -1.66,4.686 -1.864,9.879 -3.241,14.682 -0.796,2.777 -1.538,6.174 -0.399,8.981 -4.154,-3.124 -8.474,-3.538 -8.15,-9.5 0.504,-9.267 3.794,-19.777 8.289,-27.759 1.414,-2.512 2.928,-5.447 3.411,-8.286 0.786,-4.614 -1.817,-4.831 -4.127,-1.282 -2.459,3.776 -3.571,8.105 -4.912,12.362 -1.18,3.744 -2.841,7.03 -4.362,10.625 -1.475,3.488 -3.468,6.439 -3.421,10.317 0.026,2.132 0.253,3.999 0.774,6.012 C 9.508,91.835 6.901,90.471 5.492,88.359 3.807,85.833 3.951,81.619 4.458,78.518 5.404,72.717 7.406,66.689 10.254,61.535 c 2.697,-4.879 6.408,-9.041 9,-14.023 1.003,-1.927 2.111,-3.201 2.081,-5.486 -0.055,-4.17 -2.21,-4.871 -4.635,-1.565 -2.527,3.443 -4.144,7.533 -6.961,10.783 -3.187,3.677 -6.858,6.947 -9.298,11.232 -2.569,4.509 -6.904,12.588 -4.913,17.707 -3.578,-2.822 -6.972,-5.081 -6.661,-11.025 0.617,-11.772 9.256,-20.953 16.221,-29.554 1.409,-1.74 12.607,-13.693 6.369,-15.818 -2.143,-0.73 -6.608,6.733 -7.824,8.401 -2.696,3.699 -4.567,7.946 -7.003,11.824 -2.182,3.474 -4.251,7.861 -6.99,10.85 -2.202,2.402 -7.505,6.404 -6.675,10.245 -1.084,-1.896 -2.247,-4.894 -2.795,-7.105 -0.934,-3.768 1.356,-7.995 2.898,-11.339 3.966,-8.607 10.455,-19.27 18.612,-24.391 1.582,-0.994 6.47,-3.16 5.769,-5.692 -1.209,-4.365 -7.152,-0.277 -8.652,0.928 -4.082,3.276 -6.303,6.43 -8.226,11.22 -1.49,3.711 -4.944,4.936 -7.087,8.139 -2.097,3.135 -2.896,6.871 -4.575,10.19 -0.713,1.408 -1.486,2.603 -1.943,4.146 -0.27,0.912 0.342,2.409 -0.407,1.959 -4.33,-7.859 -0.334,-15.017 3.334,-22.181 2.891,-5.645 5.227,-10.137 10.047,-14.388 1.841,-1.622 3.489,-3.506 5.722,-4.616 C -2.78,11.2 -0.842,11.293 0.609,10.437 3.616,8.663 2.582,6.3 -0.726,6.761 c -4.907,0.683 -8.453,5.299 -12.325,7.889 -4.209,2.817 -8.762,5.088 -12.282,8.834 -3.343,3.556 -3.432,6.724 -5.187,10.888 3.385,-10.027 6.245,-27.986 18.736,-31.622 2.302,-0.67 7.242,0.022 8.919,-1.885 -2.367,-4.939 -5.012,-10.146 -7.898,-14.856 -3.096,-5.051 -4.644,-12.333 -8.522,-16.677 0.741,-0.16 1.473,-0.641 2.012,-1.326 1.473,2.765 2.2,6.491 3.778,9.524 1.778,3.416 3.87,6.641 5.648,10.032 C -6.536,-9.937 -3.845,0.662 0,0" /></g><g
           id="g310"><g
             id="g312" /><g
             id="g350"><g
               id="g348"
               clip-path="url(#clipPath316)"><g
                 id="g346"><g
                   id="g338" /><g
                   id="g344"
                   mask="url(#mask322)"><g
                     id="g342"
                     transform="matrix(177,0,0,295,1,100)"><image
                       id="image340"
                       mask="url(#mask334)"
                       xlink:href="file:///home/xenia/%D0%97%D0%B0%D0%B3%D1%80%D1%83%D0%B7%D0%BA%D0%B8/2465933_img11.png"
                       transform="matrix(1,0,0,-1,0,1)"
                       preserveAspectRatio="none"
                       style="image-rendering:optimizeSpeed"
                       height="1"
                       width="1" /></g></g></g></g></g></g><g
           transform="translate(102.3711,223.5635)"
           id="g352"><path
             id="path354"
             style="fill:#326765;fill-opacity:1;fill-rule:nonzero;stroke:none"
             d="m 0,0 c 3.703,5.203 6.61,11.313 10.477,16.589 5.176,7.059 13.11,12.953 20.69,17.134 4.285,2.364 11.47,5.028 12.254,10.627 0.267,1.896 -0.867,3.565 -0.502,5.597 0.56,3.117 2.667,5.357 2.047,8.834 -1.381,7.738 -10.195,15.203 -14.246,21.761 -4.777,7.734 -8.757,15.42 -14.582,22.495 -7.232,8.782 -16.925,13.824 -24.846,21.664 -4.561,4.515 -7.496,10.836 -9.719,16.638 -2.405,-7.777 -11.271,-14.948 -17.053,-20.335 -3.924,-3.655 -8.224,-6.35 -11.535,-10.665 -6.32,-8.233 -11.069,-16.563 -14.952,-26.231 -3.143,-7.829 -5.798,-15.619 -6.689,-24.062 -0.975,-9.231 -2.373,-19.71 -2.073,-28.973 0.181,-5.608 3.544,-10.373 3.796,-15.94 0.316,-6.974 -0.97,-8.415 3.668,-14.074 2.856,-3.486 5.072,-8.877 10.215,-7.99 4.825,0.833 9.917,3.77 14.829,4.95 7.909,1.9 16.869,3.812 24.972,4.537 6.53,0.583 8.797,-1.887 11.334,-7.574 4.217,-9.453 8.371,-17.099 10.803,-27.393 3.016,-12.766 6.447,-25.445 9.429,-38.193 1.656,-7.075 4.186,-14.851 3.632,-22.173 1.671,0.029 3.477,0.16 5.061,0.788 -3.446,19.682 -10.141,38.926 -13.748,58.665 -1.743,9.542 -2.739,17.152 -8.421,25.185 C 3.163,-5.768 -0.85,-1.845 0,0" /></g><g
           transform="translate(95.1543,236.9219)"
           id="g356"><path
             id="path358"
             style="fill:#27253d;fill-opacity:1;fill-rule:nonzero;stroke:none"
             d="m 0,0 c -1.33,7.644 -5.231,13.123 -8.968,19.721 -6.336,11.189 -4.22,20.258 -4.371,32.19 -0.115,8.986 -1.644,17.685 -0.891,26.754 0.682,8.215 3.101,16.063 1.511,24.278 -0.052,0.27 -0.502,0.235 -0.489,-0.047 0.88,-18.661 -8.557,-36.685 -6.982,-55.021 0.65,-7.578 3.11,-15.229 6.114,-22.188 3.867,-8.958 10.543,-16.5 13.594,-25.801 C -0.384,-0.415 0.055,-0.317 0,0" /></g><g
           transform="translate(99.8213,249.0273)"
           id="g360"><path
             id="path362"
             style="fill:#27253d;fill-opacity:1;fill-rule:nonzero;stroke:none"
             d="m 0,0 c 2.167,8.546 8.074,13.699 14.705,18.943 5.692,4.502 10.312,9.81 14.791,15.487 0.142,0.18 -0.112,0.395 -0.288,0.304 C 21.739,30.897 15.516,23.129 9.518,17.32 4.652,12.608 0.705,6.858 -0.121,0.021 -0.129,-0.049 -0.017,-0.067 0,0" /></g><g
           transform="translate(93.1377,282.1553)"
           id="g364"><path
             id="path366"
             style="fill:#27253d;fill-opacity:1;fill-rule:nonzero;stroke:none"
             d="m 0,0 c 2.988,5.763 7.471,9.824 11.495,14.775 3.765,4.633 5.186,10.737 8.368,15.805 0.11,0.174 -0.141,0.392 -0.286,0.232 C 15.299,26.101 12.113,20.218 8.259,15.133 4.773,10.534 1.779,5.53 -0.224,0.102 -0.271,-0.029 -0.065,-0.125 0,0" /></g><g
           transform="translate(88.6045,315.7588)"
           id="g368"><path
             id="path370"
             style="fill:#27253d;fill-opacity:1;fill-rule:nonzero;stroke:none"
             d="M 0,0 C 3.643,5.687 9.029,11.844 7.643,19.09 7.61,19.264 7.32,19.285 7.284,19.103 5.961,12.381 1.595,6.698 -0.448,0.203 -0.533,-0.068 -0.151,-0.236 0,0" /></g><g
           transform="translate(49.7651,315.5488)"
           id="g372"><path
             id="path374"
             style="fill:#27253d;fill-opacity:1;fill-rule:nonzero;stroke:none"
             d="m 0,0 c 3.205,-3.781 3.328,-8.655 6.267,-12.479 2.454,-3.194 6.014,-5.189 8.504,-8.361 0.143,-0.181 0.366,0.041 0.297,0.217 -1.443,3.762 -4.494,5.917 -7.111,8.818 C 4.705,-8.2 3.295,-3.486 0.135,0.128 0.056,0.219 -0.077,0.091 0,0" /></g><g
           transform="translate(39.5376,281.6167)"
           id="g376"><path
             id="path378"
             style="fill:#27253d;fill-opacity:1;fill-rule:nonzero;stroke:none"
             d="m 0,0 c 4.611,-3.463 8.887,-7.874 13.814,-10.862 5.295,-3.211 11.016,-5.771 16.276,-9.072 0.154,-0.096 0.303,0.107 0.193,0.239 -4.505,5.391 -9.089,7.672 -15.288,10.745 C 9.831,-6.389 5.787,-1.126 0.127,0.28 -0.049,0.323 -0.14,0.105 0,0" /></g><g
           transform="translate(43.9194,244.0254)"
           id="g380"><path
             id="path382"
             style="fill:#27253d;fill-opacity:1;fill-rule:nonzero;stroke:none"
             d="m 0,0 c 3.992,-3.454 8.566,-7.28 13.7,-8.834 6.354,-1.923 13.66,-2.649 20.184,-3.8 0.313,-0.055 0.702,0.343 0.377,0.612 -3.777,3.131 -9.086,3.682 -13.816,4.302 -3.831,0.503 -7.499,0.956 -11.006,2.644 C 6.225,-3.529 3.463,-1.248 0.271,0.334 0.068,0.434 -0.201,0.174 0,0" /></g><g
           transform="translate(170.2681,171.2588)"
           id="g384"><path
             id="path386"
             style="fill:#f5f5c6;fill-opacity:1;fill-rule:nonzero;stroke:none"
             d="m 0,0 c 10.922,-2.622 20.608,-3.45 31.042,2.197 10.031,5.43 11.18,15.539 15.167,25.06 C 39.166,20.687 34.551,10.853 24.552,8.121 19.524,6.746 14.163,6.822 9.099,5.625 5.85,4.856 2.792,5.624 -0.485,5.146 -0.869,6.519 -1.161,7.984 -1.28,9.386 3.272,8.728 9.896,9.886 14.298,10.991 22.1,12.95 29.647,18.29 36.148,22.834 43.757,28.152 47.54,38.814 44.456,47.359 41.941,35.88 32.037,25.845 21.34,21.91 14.355,19.342 5.002,10.958 -2.949,13.33 c -0.74,4.084 0.753,5.197 4.247,6.475 3.105,1.134 6.252,2.175 9.348,3.327 5.611,2.087 8.462,5.301 12.583,9.29 5.052,4.889 11.365,9.751 14.495,16.2 2.087,4.3 1.265,8.532 1.791,13.124 C 35.176,58.548 31.035,52.629 27.076,48.655 20.786,42.343 14.335,36.629 7.12,31.419 5.378,30.16 -3.004,23.4 -5.114,24.383 c -2.213,1.03 -0.122,5.789 0.795,7.022 3.596,4.842 10.38,5.379 14.412,9.887 3.23,3.611 5.826,7.22 9.395,10.541 2.997,2.791 6.069,5.568 8.618,8.779 1.74,2.191 4.685,4.984 5.658,7.724 0.776,2.184 -0.089,3.819 -0.175,5.975 -0.175,4.395 0.051,6.124 -3.135,9.543 C 30.196,69.971 15.113,62.711 6.823,53.77 4.079,50.811 1.271,47.733 -1.312,44.638 c -1.427,-1.71 -2.499,-4.154 -4.44,-5.409 -3.457,-2.237 -5.714,0.598 -3.953,4.19 0.545,-0.051 1.657,2.346 2.41,3.362 1.891,2.558 4.448,4.076 6.836,6.136 6.06,5.226 10.804,10.807 14.941,17.528 3.304,5.367 7.825,10.566 10.455,16.298 0.874,1.903 1.832,4.716 1.699,6.843 -0.131,2.1 -1.648,3.747 -2.218,5.729 C 22.353,90.319 16.554,84.619 10.73,77.651 3.935,69.522 -1.732,60.083 -8.948,52.358 c -1.887,-2.02 -3.075,-2.744 -3.847,0.359 -1.126,4.532 3.18,9.108 5.822,12.195 3.727,4.357 6.972,8.97 10.308,13.624 3.575,4.985 4.999,8.928 6.683,14.794 1.091,3.806 3.246,8.531 2.855,12.585 -0.273,2.828 -2.059,4.048 -3.928,5.91 C 11.124,105.581 6.039,98.356 3.481,92.896 0.926,87.442 -2.883,82.578 -6.096,77.485 c -2.437,-3.862 -4.493,-8.463 -7.217,-12.101 -1.522,-2.033 -2.526,-2.839 -3.883,-0.173 -1.996,3.924 1.098,8.549 3.256,11.558 6.295,8.779 10.754,19.611 12.809,30.222 1.3,6.71 -2.471,12.274 -5.784,17.634 2.26,-8.613 -0.191,-17.522 -4.273,-25.111 -2.75,-5.112 -5.296,-10.322 -7.193,-15.816 -0.798,-2.311 -4.258,-9.276 -5.979,-3.013 -0.701,2.554 0.98,6.762 1.56,9.2 0.946,3.979 1.896,7.956 2.822,11.939 1.578,6.777 2.641,12.858 0.262,19.477 -1.216,3.383 -1.149,3.701 -4.219,4.774 -1.545,0.539 -4.386,2.484 -5.638,2.237 1.612,-5.117 4.381,-8.636 4.075,-14.332 -0.152,-2.83 -1.002,-16.584 -4.192,-17.792 -3.948,-1.494 -1.241,16.333 -1.255,18.88 -0.023,3.883 0.225,13.698 -3.54,16.19 -4.05,-6.005 0.777,-16.367 -3.989,-22.027 -2.063,1.041 -2.223,4.873 -3.085,6.898 -1.337,3.142 -3.549,5.292 -5.72,7.859 -0.666,0.787 -2.158,3.73 -3.244,3.737 -0.995,0.005 -2.351,-2.416 -3.63,-2.853 -1.372,-0.471 -2.045,0.636 -3.507,-0.372 -1.599,-1.101 -2.104,-5.027 -2.816,-6.747 -1.476,-3.569 -4.545,-7.149 -2.685,-11.172 3.977,-8.602 16.786,-13.539 25.121,-16.509 1.917,-0.683 10.071,-2.622 9.415,-6.053 -0.665,-3.473 -10.568,1.569 -12.543,2.515 -5.236,2.507 -9.684,6.633 -14.782,9.469 -2.947,1.641 -6.361,3.839 -7.732,7.099 -0.86,-6.007 -4.091,-9.91 1.09,-14.573 8.055,-7.248 19.438,-13.23 29.735,-16.126 3.239,-0.911 6.909,-2.09 9.649,-4.04 4.453,-3.169 2.479,-5.493 -2.356,-4.463 -5.145,1.098 -9.633,3.761 -14.251,6.175 -4.062,2.125 -8.144,3.473 -12.365,5.193 -4.093,1.669 -8.174,2.465 -11.332,5.712 -1.736,1.784 -3.087,3.515 -4.315,5.609 -0.002,-2.806 -1.033,-6.084 -0.458,-8.991 0.689,-3.479 4.282,-6.844 7.256,-8.992 5.564,-4.016 12.188,-7.351 18.791,-9.266 6.252,-1.813 12.751,-2.195 19.001,-4.179 2.418,-0.767 4.384,-0.907 6.242,-2.821 3.391,-3.494 2.187,-5.85 -2.544,-5.115 -4.926,0.764 -9.635,2.814 -14.643,3.18 -5.666,0.414 -11.398,0.093 -16.947,1.624 -5.84,1.613 -16.085,4.721 -18.656,10.596 -0.634,-5.283 -1.579,-9.949 3.578,-14.608 10.212,-9.227 24.923,-9.7 37.773,-11.072 2.599,-0.278 21.711,-0.932 18.304,-7.832 -1.171,-2.369 -11.015,0.122 -13.394,0.499 -5.28,0.837 -10.327,2.807 -15.537,4.007 -4.668,1.074 -9.995,2.996 -14.724,3.211 -3.8,0.172 -11.484,-0.89 -13.964,2.972 0.666,-2.461 2.176,-5.9 3.544,-8.18 2.334,-3.887 7.712,-5.493 11.743,-6.989 10.374,-3.849 24.529,-7.32 35.495,-4.831 2.127,0.482 7.956,2.72 9.463,0.048 2.598,-4.606 -5.687,-6.123 -7.92,-6.364 -6.077,-0.655 -10.513,0.123 -16.05,2.499 -4.292,1.841 -8.158,0.007 -12.569,0.89 -4.32,0.864 -8.059,3.296 -12.184,4.656 -1.75,0.577 -3.373,0.928 -5.023,1.827 -0.975,0.532 -1.704,2.275 -1.951,1.285 2.896,-10.067 12.101,-12.695 21.038,-15.595 7.044,-2.285 12.678,-4.075 20.168,-3.617 2.86,0.174 5.775,-0.025 8.537,0.897 1.927,0.643 3.454,2.317 5.359,2.805 3.949,1.012 5.042,-1.795 1.927,-4.141 -4.622,-3.478 -11.359,-2.584 -16.696,-3.633 -5.802,-1.139 -11.439,-3.014 -17.438,-2.818 -5.695,0.186 -8.38,2.731 -13.263,4.73 11.063,-5.503 28.23,-17.998 41.557,-10.709 2.455,1.343 5.97,5.987 8.929,5.792 2.113,-6.036 4.218,-12.522 5.713,-18.795 1.603,-6.729 6.325,-14.027 6.698,-20.815 0.744,0.477 1.747,0.684 2.757,0.561 -1.061,3.501 -3.531,7.18 -4.726,10.991 -1.345,4.289 -2.273,8.682 -3.597,12.95 C 2.785,-13.604 -3.726,-2.621 0,0" /></g><g
           transform="translate(212.9629,130.7979)"
           id="g388"><path
             id="path390"
             style="fill:#f5f5c6;fill-opacity:1;fill-rule:nonzero;stroke:none"
             d="m 0,0 c 1.229,-11.166 3.727,-20.561 12.572,-28.467 8.505,-7.602 18.407,-5.262 28.715,-5.793 -8.566,4.405 -19.382,5.419 -25.337,13.905 -2.994,4.265 -4.737,9.335 -7.577,13.697 -1.823,2.797 -2.136,5.933 -3.694,8.856 1.161,0.825 2.442,1.596 3.72,2.183 0.921,-4.507 4.253,-10.349 6.783,-14.116 4.483,-6.679 12.063,-11.974 18.538,-16.554 7.579,-5.36 18.892,-5.312 25.89,0.481 -11.653,-1.518 -24.448,4.407 -31.771,13.141 -4.78,5.703 -15.834,11.668 -16.293,19.953 3.593,2.078 5.146,1.05 7.53,-1.807 2.118,-2.537 4.163,-5.146 6.295,-7.669 3.862,-4.574 7.851,-6.169 12.999,-8.698 6.31,-3.099 13.022,-7.394 20.15,-8.157 4.752,-0.509 8.457,1.696 12.956,2.756 -4.478,3 -11.45,4.894 -16.529,7.275 -8.068,3.783 -15.628,7.919 -22.972,12.946 -1.773,1.213 -10.972,6.813 -10.761,9.131 0.221,2.431 5.406,2.074 6.877,1.628 5.773,-1.746 8.575,-7.947 14.181,-10.215 4.491,-1.818 8.765,-3.04 13.098,-5.274 3.641,-1.877 7.294,-3.826 11.178,-5.139 2.65,-0.896 6.274,-2.722 9.182,-2.71 2.317,0.008 3.565,1.376 5.563,2.186 4.077,1.652 5.78,2.025 7.919,6.18 C 76.062,-4.737 64.125,7 52.907,11.775 c -3.714,1.58 -7.559,3.181 -11.346,4.564 -2.092,0.765 -4.754,0.947 -6.593,2.348 -3.275,2.497 -1.37,5.58 2.606,5.137 0.135,-0.529 2.768,-0.764 3.98,-1.129 3.046,-0.915 5.34,-2.806 8.086,-4.356 6.968,-3.934 13.826,-6.51 21.55,-8.129 6.168,-1.292 12.591,-3.787 18.874,-4.322 2.087,-0.178 5.059,-0.128 7.015,0.716 1.931,0.833 2.968,2.819 4.641,4.026 -9.165,-1.101 -16.491,2.427 -25.018,5.55 -9.949,3.643 -20.75,5.782 -30.46,9.958 -2.54,1.091 -3.623,1.966 -0.965,3.741 3.884,2.593 9.648,0.09 13.446,-1.352 5.361,-2.033 10.8,-3.525 16.308,-5.09 5.902,-1.675 10.093,-1.682 16.184,-1.281 3.95,0.26 9.125,-0.168 12.807,1.573 2.57,1.212 3.114,3.306 4.234,5.695 -5.14,-4.164 -13.658,-1.823 -19.661,-1.265 -5.998,0.559 -11.865,2.497 -17.743,3.798 -4.459,0.986 -9.484,1.364 -13.83,2.696 -2.429,0.744 -3.527,1.416 -1.476,3.596 3.016,3.205 8.415,1.859 11.977,0.847 10.391,-2.953 22.093,-3.484 32.773,-1.826 6.754,1.047 10.714,6.477 14.638,11.411 -7.341,-5.042 -16.555,-5.75 -25.077,-4.478 -5.74,0.858 -11.504,1.491 -17.317,1.417 -2.445,-0.031 -10.17,0.867 -4.858,4.607 2.166,1.523 6.695,1.365 9.185,1.645 4.064,0.456 8.128,0.908 12.191,1.384 6.91,0.808 12.992,1.866 18.415,6.345 2.772,2.289 3.094,2.334 3.064,5.585 -0.015,1.636 0.854,4.968 0.197,6.063 -4.268,-3.248 -6.644,-7.045 -12.107,-8.685 -2.714,-0.814 -15.944,-4.668 -18.16,-2.076 -2.742,3.209 14.95,6.695 17.341,7.571 3.646,1.335 12.965,4.423 14.037,8.809 -7.022,1.778 -15.139,-6.269 -22.077,-3.7 0.282,2.293 3.833,3.741 5.446,5.236 2.505,2.323 3.779,5.132 5.46,8.042 0.515,0.894 2.78,3.293 2.419,4.319 -0.331,0.937 -3.069,1.394 -3.913,2.449 -0.908,1.133 -0.094,2.14 -1.536,3.175 -1.578,1.132 -5.443,0.279 -7.303,0.366 -3.858,0.182 -8.266,1.858 -11.421,-1.253 -6.748,-6.654 -7.06,-20.379 -7.034,-29.226 0.006,-2.036 0.94,-10.364 -2.511,-10.908 -3.491,-0.55 -2.099,10.476 -1.878,12.654 0.588,5.775 2.965,11.358 3.909,17.114 0.546,3.328 1.46,7.285 4.064,9.678 C 69.526,93.591 64.76,95.311 62.126,88.857 58.03,78.825 56.254,66.089 57.014,55.42 57.252,52.063 57.385,48.21 56.477,44.972 55.002,39.71 52.146,40.78 51.48,45.68 c -0.709,5.213 0.279,10.337 0.989,15.499 0.624,4.542 0.51,8.84 0.701,13.392 0.184,4.417 -0.446,8.528 1.54,12.597 1.092,2.237 2.264,4.095 3.818,5.959 C 55.887,92.179 52.454,92.04 49.913,90.515 46.872,88.689 44.922,84.17 43.907,80.645 42.01,74.05 41.113,66.688 41.547,59.826 41.956,53.33 43.795,47.085 44.044,40.532 44.14,37.997 44.673,36.1 43.501,33.703 c -2.14,-4.373 -4.765,-4.037 -5.674,0.663 -0.947,4.895 -0.612,10.02 -1.962,14.856 -1.528,5.472 -3.77,10.757 -4.206,16.497 -0.46,6.042 -1.002,16.733 3.656,21.141 -5.186,-1.191 -9.896,-1.881 -12.536,-8.31 -5.226,-12.733 -0.692,-26.736 2.365,-39.291 0.618,-2.54 6.47,-20.746 -1.176,-19.874 -2.626,0.3 -3.612,10.405 -4.063,12.771 -0.999,5.252 -0.853,10.668 -1.488,15.977 -0.568,4.756 -0.562,10.419 -1.96,14.941 -1.124,3.635 -4.723,10.506 -1.93,14.147 C 12.437,75.76 9.712,73.177 8.03,71.117 5.163,67.606 5.47,62.002 5.427,57.702 5.316,46.638 6.84,32.144 12.893,22.667 c 1.173,-1.839 5.252,-6.566 3.247,-8.889 -3.455,-4.003 -7.686,3.28 -8.669,5.3 -2.672,5.496 -3.441,9.933 -3.079,15.948 0.28,4.662 -2.754,7.679 -3.416,12.129 -0.649,4.358 0.374,8.699 0.258,13.04 -0.049,1.842 -0.268,3.489 0.02,5.345 0.17,1.098 1.563,2.373 0.548,2.272 C -6.691,61.679 -6.049,52.128 -5.753,42.736 -5.52,35.335 -5.298,29.428 -2.333,22.534 -1.2,19.903 -0.401,17.093 1.401,14.806 2.658,13.209 4.75,12.339 5.854,10.711 8.142,7.338 5.871,5.359 2.61,7.497 c -4.838,3.172 -6.276,9.815 -9.069,14.482 -3.036,5.074 -6.708,9.744 -8.553,15.456 -1.752,5.42 -0.265,8.809 -0.037,14.081 -1.435,-12.274 -7.383,-32.656 3.986,-42.73 2.094,-1.856 7.654,-3.593 8.472,-6.442 -4.965,-4.031 -10.356,-8.207 -15.754,-11.737 -5.789,-3.785 -11.059,-10.698 -17.32,-13.346 0.701,-0.539 1.234,-1.412 1.461,-2.405 2.935,2.183 5.562,5.753 8.743,8.166 3.581,2.718 7.4,5.078 10.969,7.768 C -11.858,-7.225 -3.727,2.618 0,0" /></g><g
           id="g392"><g
             id="g394" /><g
             id="g432"><g
               id="g430"
               clip-path="url(#clipPath398)"><g
                 id="g428"><g
                   id="g420" /><g
                   id="g426"
                   mask="url(#mask404)"><g
                     id="g424"
                     transform="matrix(140,0,0,143,-28,142)"><image
                       id="image422"
                       mask="url(#mask416)"
                       xlink:href="file:///home/xenia/%D0%97%D0%B0%D0%B3%D1%80%D1%83%D0%B7%D0%BA%D0%B8/2465933_img14.png"
                       transform="matrix(1,0,0,-1,0,1)"
                       preserveAspectRatio="none"
                       style="image-rendering:optimizeSpeed"
                       height="1"
                       width="1" /></g></g></g></g></g></g><g
           transform="translate(26.0781,197.4053)"
           id="g434"><path
             id="path436"
             style="fill:#f5f5c6;fill-opacity:1;fill-rule:nonzero;stroke:none"
             d="m 0,0 c 1.053,1.292 3.134,1.738 4.619,2.282 2.561,0.938 4.826,1.242 7.569,1.085 4.339,-0.25 8.308,-1.948 12.047,-4.128 3.408,-1.986 6.362,-4.997 8.688,-8.126 0.89,-1.197 2.564,-2.011 3.378,-0.222 1.189,-3.344 5.851,-12.818 10.337,-7.716 1.459,1.66 2.209,3.977 3.5,5.794 2.133,3.002 2.142,5.614 2.831,9.083 0.641,3.219 2.732,6.4 2.433,9.792 -0.121,1.375 -1.201,3.481 -2.795,3.543 1.952,0.134 2.308,1.923 2.347,3.516 0.042,1.698 -0.148,3.223 -0.961,4.736 -0.728,1.352 -1.864,2.167 -2.028,3.775 -0.214,2.108 0.081,3.591 -1.338,5.362 -0.894,1.118 -2.136,1.72 -3.132,2.705 -1.17,1.16 -1.059,2.433 -1.847,3.684 -0.85,1.352 -2.543,1.349 -4.007,1.508 -1.887,0.206 -3.903,0.55 -5.699,-0.227 -1.731,-0.749 -2.209,-3.076 -3.885,-3.632 -0.687,-0.227 -1.582,0.21 -2.37,-0.189 -1.022,-0.519 -1.63,-1.89 -2.356,-2.723 -1.837,-2.109 -3.988,-3.622 -6.296,-5.164 1.805,0.899 3.791,2.824 4.623,4.681 0.721,1.614 -0.03,2.169 1.266,3.409 1.614,1.546 3.522,3.15 4.955,4.861 1.396,1.666 0.973,3.89 1.059,5.958 0.092,2.21 -1.958,2.871 -2.577,4.863 -0.446,1.436 -0.703,3.041 -2.041,3.964 -0.963,0.666 -2.129,0.522 -3.211,0.862 -2.065,0.648 -3.963,3.327 -6.357,1.938 -0.909,-0.527 -1.178,-1.344 -2.318,-1.571 -1.198,-0.238 -3.368,-0.248 -4.538,0.2 -0.939,0.36 -1.045,1.09 -1.825,1.568 -0.877,0.538 -1.568,0.064 -2.534,0.265 -1.1,0.228 -1.67,1.128 -2.816,0.832 -1.104,-0.285 -1.636,-1.577 -2.433,-2.158 -2.73,2.612 -3.175,-0.788 -6.166,-1.138 -1.38,-0.161 -2.372,0.495 -3.796,0.017 -1.935,-0.65 -3.255,-1.635 -3.183,-3.66 0.113,-3.2 -1.317,-3.106 -3.927,-4.256 -1.993,-0.878 -5.441,-3.825 -5.322,-6.123 0.051,-0.997 0.372,-1.877 0.289,-2.921 -0.128,-1.638 -0.693,-2.636 0.62,-3.896 1.1,-1.057 2.722,-1.476 4.005,-2.248 1.244,-0.75 2.257,-1.698 3.38,-2.603 2.004,-1.616 4.416,-2.539 6.388,-4.173 1.093,-0.907 2.038,-1.983 3.016,-3.004 -4.456,0.048 2.612,-6.728 3.273,-7.831 C 1.841,10.947 1.997,9.32 1.681,7.361 1.175,4.215 -0.531,2.536 -2.339,0.111 -3.258,0.05 -6.182,-3.249 -7.113,-4.077 c -2.512,-2.233 -4.958,-4.503 -7.282,-6.932 -3.646,-3.81 -6.396,-8.157 -9.42,-12.424 0.346,-0.352 0.715,-0.696 1.087,-1.02 0.655,0.797 1.029,1.871 1.574,2.767 0.975,1.607 2.256,3.034 3.423,4.497 2.72,3.408 5.894,6.479 8.882,9.657 1.937,2.058 4.005,4.064 6.21,5.824 C -2.095,-1.274 -0.335,0.084 0,0" /></g><g
           transform="translate(30.1499,202.4453)"
           id="g438"><path
             id="path440"
             style="fill:#27253d;fill-opacity:1;fill-rule:nonzero;stroke:none"
             d="m 0,0 c 1.529,0.852 2.308,2.135 3.445,3.421 1.766,1.996 4.059,3.291 6.047,5.035 3.618,3.173 5.445,7.804 9.031,11.101 0.067,0.061 -0.009,0.193 -0.096,0.156 -3.646,-1.551 -5.643,-5.3 -7.976,-8.322 C 8.898,9.379 7.106,7.805 5.332,6.011 3.429,4.087 2.229,1.654 -0.037,0.062 -0.074,0.035 -0.041,-0.022 0,0" /></g><g
           transform="translate(60.2021,226.4873)"
           id="g442"><path
             id="path444"
             style="fill:#27253d;fill-opacity:1;fill-rule:nonzero;stroke:none"
             d="m 0,0 c 5.661,1.873 6.306,-4.488 7.294,-8.021 0.441,-1.575 0.922,-2.58 1.103,-4.292 0.233,-2.2 -0.491,-3.338 -0.73,-5.432 -0.106,-0.935 0.06,-1.665 0.07,-2.552 0.028,-2.419 -0.248,-3.519 -1.308,-5.517 -1.461,-2.754 -1.88,-5.966 -3.28,-8.826 -0.137,-0.28 0.251,-0.471 0.42,-0.222 1.521,2.241 1.907,3.818 2.658,6.286 0.706,2.321 2.813,3.678 3.218,5.946 0.333,1.867 -0.502,3.995 -0.423,5.876 0.077,1.816 0.496,3.461 0.103,5.25 C 8.672,-9.438 7.564,-7.558 7.118,-5.386 6.832,-3.995 6.591,-2.824 5.707,-1.67 4.247,0.236 2.167,1.056 -0.019,0.043 -0.044,0.032 -0.025,-0.009 0,0" /></g><g
           transform="translate(49.9087,217.9561)"
           id="g446"><path
             id="path448"
             style="fill:#27253d;fill-opacity:1;fill-rule:nonzero;stroke:none"
             d="m 0,0 c 3.394,0.671 5.041,-4.034 6.539,-6.241 1.935,-2.85 1.489,-5.169 -0.787,-7.663 -1.863,-2.043 -3.928,-3.822 -2.96,-6.813 0.062,-0.192 0.334,-0.105 0.296,0.087 -1.106,5.546 7.693,7.476 5.048,13.266 -0.552,1.209 -1.547,2.183 -2.264,3.29 -0.769,1.185 -1.194,2.709 -2.188,3.74 C 2.52,0.875 1.363,0.855 -0.038,0.087 -0.088,0.06 -0.05,-0.01 0,0" /></g><g
           transform="translate(44.3818,211.0605)"
           id="g450"><path
             id="path452"
             style="fill:#27253d;fill-opacity:1;fill-rule:nonzero;stroke:none"
             d="m 0,0 c 0.734,-1.693 -0.997,-2.671 -1.251,-4.228 -0.103,-0.625 0.021,-1.236 0.051,-1.86 0.046,-0.929 -0.199,-1.651 -0.509,-2.514 -0.076,-0.21 0.227,-0.335 0.364,-0.194 1.524,1.569 0.238,3.101 0.732,4.934 0.409,1.516 1.712,2.348 0.893,3.986 C 0.203,0.279 -0.07,0.161 0,0" /></g><g
           transform="translate(12.3853,231.4941)"
           id="g454"><path
             id="path456"
             style="fill:#27253d;fill-opacity:1;fill-rule:nonzero;stroke:none"
             d="m 0,0 c 1.724,2.626 3.274,3.234 5.954,4.032 1.04,0.31 1.231,0.312 2.132,0.983 0.832,0.618 1.199,1.578 1.966,2.215 3.602,2.998 3.849,0.66 6.647,0.688 2.936,0.03 4.624,2.827 7.693,2.973 3.511,0.166 7.523,-2.968 10.729,-4.305 0.083,-0.035 0.168,0.065 0.096,0.134 -2.479,2.366 -6.241,4.468 -9.718,4.82 -1.151,0.115 -2.395,-0.014 -3.486,-0.415 C 21.155,10.81 20.616,10.269 19.826,9.912 17.906,9.049 16.679,9.004 14.615,9.173 10.964,9.471 10.912,8.459 8.459,6.089 6.649,4.34 4.426,4.771 2.477,3.606 1.232,2.864 0.455,1.324 -0.21,0.111 -0.285,-0.025 -0.083,-0.126 0,0" /></g><g
           transform="translate(20.1943,223.2334)"
           id="g458"><path
             id="path460"
             style="fill:#27253d;fill-opacity:1;fill-rule:nonzero;stroke:none"
             d="m 0,0 c 1.841,2.161 2.899,5.341 6.665,4.641 1.187,-0.22 2.132,-0.807 3.393,-0.695 1.201,0.108 2.331,0.694 3.488,0.986 2.93,0.738 4.705,-0.203 7.233,-1.529 0.046,-0.024 0.098,0.043 0.055,0.076 -1.543,1.204 -2.729,2.878 -4.786,3.11 C 13.931,6.827 12.286,5.569 10.312,5.129 8.333,4.687 6.229,5.749 4.334,5.184 2.113,4.52 1.291,1.655 -0.104,0.098 -0.165,0.029 -0.06,-0.07 0,0" /></g><g
           transform="translate(28.1851,214.5684)"
           id="g462"><path
             id="path464"
             style="fill:#27253d;fill-opacity:1;fill-rule:nonzero;stroke:none"
             d="m 0,0 c 0.663,1.229 2.547,1.214 3.736,1.276 1.82,0.095 3.181,-0.12 4.276,-1.72 0.116,-0.171 0.404,-0.105 0.396,0.117 C 8.332,1.836 5.491,2.139 3.846,1.896 2.73,1.731 0.228,1.389 -0.044,0.017 -0.049,-0.01 -0.013,-0.024 0,0" /></g><g
           id="g466"><g
             id="g468" /><g
             id="g506"><g
               id="g504"
               clip-path="url(#clipPath472)"><g
                 id="g502"><g
                   id="g494" /><g
                   id="g500"
                   mask="url(#mask478)"><g
                     id="g498"
                     transform="matrix(218,0,0,238,-22,54)"><image
                       id="image496"
                       mask="url(#mask490)"
                       xlink:href="file:///home/xenia/%D0%97%D0%B0%D0%B3%D1%80%D1%83%D0%B7%D0%BA%D0%B8/2465933_img17.png"
                       transform="matrix(1,0,0,-1,0,1)"
                       preserveAspectRatio="none"
                       style="image-rendering:optimizeSpeed"
                       height="1"
                       width="1" /></g></g></g></g></g></g></g></g><g
       id="g508"><g
         id="g510"><g
           id="g516"><g
             id="g518"><path
               id="path528"
               style="fill:url(#radialGradient526);stroke:none"
               d="m 52.073,245.731 c -1.272,-0.38 -2.325,-0.86 -3.211,-1.426 v 0 c 15.936,-13.804 38.651,-39.524 64.2,-86.756 v 0 c 2.748,1.607 10.09,-2.447 12.11,-2.988 v 0 c 7.726,-2.077 14.908,1.755 18.757,8.552 v 0 c 4.574,8.076 6.429,15.777 6.208,25.141 v 0 c -0.232,9.807 -4.297,18.507 -9.876,26.457 v 0 c -5.595,7.975 -14.061,13.746 -22.116,19.129 v 0 c -4.198,2.805 -8.379,3.305 -13.021,4.853 v 0 c -1.985,0.661 -3.141,2.084 -5.006,2.817 v 0 c 3.739,-6.015 5.391,-11.921 6.167,-18.954 v 0 c 0.902,-8.18 2.018,-22.933 -4.098,-29.652 v 0 c -1.944,-2.135 -3.119,-2.091 -4.493,0.253 v 0 c -1.884,3.217 -0.405,7.106 0.403,10.403 v 0 c 1.787,7.298 5.057,14.308 3.935,22.006 v 0 c -1.104,7.577 -5.684,12.775 -12.806,15.739 v 0 c -2.62,1.09 -4.39,0.663 -7.404,0.483 v 0 c -5.461,-0.324 -9.468,0.452 -14.644,2.227 v 0 c -3.329,1.142 -7.218,2.284 -10.94,2.284 v 0 c -1.427,0 -2.828,-0.168 -4.165,-0.568" /></g></g></g></g><g
       id="g530"><g
         id="g532"><g
           id="g538"><g
             id="g540"><path
               id="path550"
               style="fill:url(#radialGradient548);stroke:none"
               d="m 43.218,233.132 c -0.864,-3.563 -1.894,-8.906 -5.29,-10.947 v 0 c 0.22,-0.328 0.129,-0.736 0.42,-0.426 v 0 c 2.718,-3.355 5.281,-6.865 8.361,-9.976 v 0 c 3.051,-3.08 6.412,-5.91 10.074,-8.24 v 0 c 1.416,-0.902 10.335,-4.638 8.418,-7.371 v 0 c -2.17,-3.09 -10.555,2.389 -12.676,3.304 v 0 c -3.932,1.696 -8.499,2.642 -12.139,4.975 v 0 c -3.326,2.13 -7.638,6.972 -7.171,11.158 v 0 c -0.073,-0.06 -0.144,-0.12 -0.215,-0.18 v 0 -27.597 c 2.143,-1.526 4.571,-2.846 6.843,-4.071 v 0 c 4.333,-2.334 8.485,-4.29 13.422,-4.916 v 0 c 6.862,-0.868 14.336,-1.372 20.933,-3.538 v 0 c 2.802,-0.92 3.931,-3.133 0.488,-4.197 v 0 c -3.592,-1.112 -8.061,10e-4 -11.662,0.356 v 0 c -4.625,0.456 -9.467,0.68 -14.108,0.467 v 0 c -5.347,-0.243 -9.843,-0.253 -14.639,2.395 v 0 c -0.45,0.248 -0.874,0.514 -1.277,0.794 v 0 -22.785 c 0.4,-0.802 0.855,-1.571 1.42,-2.248 v 0 c 7.556,1.479 15.37,1.53 22.865,3.371 v 0 c 3.765,0.925 26.211,4.968 24.77,-3.002 v 0 c -0.582,-3.214 -4.916,-6.399 -7.742,-7.521 v 0 c -4.25,-1.685 -9.829,-1.467 -14.361,-1.285 v 0 c -5.193,0.21 -10.415,0.645 -15.32,2.481 v 0 c -2.471,0.925 -5.14,2.62 -7.706,3.027 v 0 c 2.083,-4.254 4.83,-7.973 8.066,-11.16 v 0 h 66.42 c 0.035,0.05 0.07,0.101 0.105,0.151 v 0 c 1.143,1.654 2.082,3.567 2.674,5.567 v 0 c 0.119,-1.902 0.054,-3.82 -0.164,-5.718 v 0 h 1.494 c 0.758,5.295 1.126,10.558 -0.458,15.805 v 0 c -0.448,1.483 -1.184,3.637 -2.234,5.613 v 0 c 0.07,0.054 0.156,0.086 0.233,0.131 v 0 c -25.549,47.232 -48.264,72.952 -64.2,86.756 v 0 c -3.714,-2.371 -4.462,-6.296 -5.644,-11.173" /></g></g></g></g><g
       id="g552"><g
         clip-path="url(#clipPath558)"
         id="g554"><g
           id="g560"><g
             id="g562" /><g
             id="g600"><g
               id="g598"
               clip-path="url(#clipPath566)"><g
                 id="g596"><g
                   id="g588" /><g
                   id="g594"
                   mask="url(#mask572)"><g
                     id="g592"
                     transform="matrix(190,0,0,250,113,75)"><image
                       id="image590"
                       mask="url(#mask584)"
                       xlink:href="file:///home/xenia/%D0%97%D0%B0%D0%B3%D1%80%D1%83%D0%B7%D0%BA%D0%B8/2465933_img20.png"
                       transform="matrix(1,0,0,-1,0,1)"
                       preserveAspectRatio="none"
                       style="image-rendering:optimizeSpeed"
                       height="1"
                       width="1" /></g></g></g></g></g></g></g></g><g
       id="g602"><g
         id="g604"><g
           id="g610"><g
             id="g612"><path
               id="path622"
               style="fill:url(#radialGradient620);stroke:none"
               d="m 232.654,266.038 c -3.884,-6.854 -8.073,-11.411 -15.228,-14.725 v 0 c -2.723,-1.261 -5.578,-2.513 -7.075,-5.353 v 0 c -1.736,-3.293 -1.331,-7.506 -2.904,-11.004 v 0 c -3.537,-7.869 -11.443,-10.968 -19.396,-12.858 v 0 c -3.847,-0.913 -8.659,-1.485 -11.466,-4.621 v 0 c -2.389,-2.67 -1.416,-5.946 -2.154,-9.313 v 0 c -1.645,-7.497 -8.908,-11.696 -9.273,-19.664 v 0 c -0.183,-3.987 -0.543,-5.874 -2.708,-9.324 v 0 c -1.831,-2.914 -4.245,-5.898 -4.357,-9.51 v 0 c -0.12,-3.906 2.543,-7.18 2.481,-11.239 v 0 c -0.075,-4.953 -1.101,-8.703 4.292,-11.447 v 0 c 9.116,-4.642 17.181,1.898 23.381,7.762 v 0 c 3.913,3.7 7.612,9.879 12.695,12.339 v 0 c -3.186,-5.678 -5.658,-12.06 -8.166,-18.029 v 0 c -1.904,-4.535 -3.871,-8.857 -6.262,-13.052 v 0 h 5.382 c 2.37,4.774 4.348,9.782 6.41,14.781 v 0 c 0.643,1.558 1.323,3.105 2.029,4.64 v 0 c 0.514,-2.285 1.845,-4.002 3.702,-6.564 v 0 c 2.801,-3.862 2.532,-8.952 4.277,-12.857 v 0 h 16.775 c 2.191,3.079 4.15,5.389 7.973,7.531 v 0 c 4.088,2.291 7.738,4.863 10.632,8.632 v 0 c 3.871,5.041 3.802,10.555 4.407,16.578 v 0 c 0.607,6.039 1.964,11.412 5.068,16.679 v 0 c 3.804,6.452 5.672,10.807 4.417,18.455 v 0 c -1.188,7.24 -4.821,13.631 -5.544,21.029 v 0 c -0.705,7.219 0.547,13.796 1.343,20.879 v 0 c 1.072,9.553 -1.828,19.507 -5.954,28.046 v 0 c -0.687,1.422 -3.406,5.433 -4.058,6.07 v 0 c -3.026,-5.048 -7.782,-8.676 -10.719,-13.861" /></g></g></g></g><g
       id="g624"><g
         clip-path="url(#clipPath630)"
         id="g626"><g
           transform="translate(243.0972,265.833)"
           id="g632"><path
             id="path634"
             style="fill:#27253d;fill-opacity:1;fill-rule:nonzero;stroke:none"
             d="m 0,0 c -2.231,-9.517 -3.184,-19.695 -6.603,-28.871 -2.986,-8.015 -7.475,-15.92 -11.297,-23.579 -4.043,-8.1 -7.295,-16.587 -11.536,-24.606 -2.229,-4.215 -4.875,-8.229 -6.935,-12.53 -1.907,-3.981 -2.829,-8.306 -5.295,-12.009 -0.132,-0.199 0.205,-0.427 0.35,-0.236 2.215,2.915 3.282,6.13 4.862,9.41 2.266,4.703 5.615,8.743 8.5,13.066 5.333,7.991 9.907,16.623 12.892,25.76 2.71,8.294 6.18,16.3 9.045,24.524 3.263,9.364 3.575,19.494 6.17,29.04 C 0.179,0.065 0.023,0.098 0,0" /></g><g
           transform="translate(216.6069,173.1592)"
           id="g636"><path
             id="path638"
             style="fill:#27253d;fill-opacity:1;fill-rule:nonzero;stroke:none"
             d="m 0,0 c 4.305,4.027 9.489,4.794 15.114,5.352 4.829,0.478 9.345,1.797 13.915,3.375 0.145,0.049 0.08,0.262 -0.052,0.275 C 23.388,9.539 17.082,7.414 11.609,6.311 7.169,5.416 2.873,3.604 -0.061,0.055 -0.091,0.019 -0.034,-0.032 0,0" /></g><g
           transform="translate(224.8057,194.2148)"
           id="g640"><path
             id="path642"
             style="fill:#27253d;fill-opacity:1;fill-rule:nonzero;stroke:none"
             d="m 0,0 c 3.762,2.165 7.75,2.832 11.803,4.166 3.791,1.247 6.795,4.17 10.416,5.873 0.124,0.059 0.061,0.272 -0.078,0.233 C 18.033,9.166 14.116,7.006 10.111,5.535 6.489,4.205 2.998,2.471 -0.089,0.139 -0.164,0.082 -0.082,-0.047 0,0" /></g><g
           transform="translate(235.6362,216.7627)"
           id="g644"><path
             id="path646"
             style="fill:#27253d;fill-opacity:1;fill-rule:nonzero;stroke:none"
             d="M 0,0 C 4.104,1.886 9.357,3.406 11.193,7.984 11.237,8.094 11.082,8.211 10.996,8.12 7.825,4.815 3.315,3.193 -0.179,0.276 -0.325,0.154 -0.17,-0.078 0,0" /></g><g
           transform="translate(242.3091,237.8262)"
           id="g648"><path
             id="path650"
             style="fill:#27253d;fill-opacity:1;fill-rule:nonzero;stroke:none"
             d="M 0,0 C 2.314,2.07 5.458,4.134 5.736,7.515 5.743,7.596 5.617,7.641 5.579,7.564 4.165,4.75 1.531,2.771 -0.174,0.146 -0.245,0.036 -0.096,-0.086 0,0" /></g><g
           transform="translate(212.4526,228.667)"
           id="g652"><path
             id="path654"
             style="fill:#27253d;fill-opacity:1;fill-rule:nonzero;stroke:none"
             d="m 0,0 c 0.438,-3.284 -1.251,-6.072 -0.979,-9.285 0.229,-2.684 1.512,-5.092 1.768,-7.776 0.015,-0.154 0.22,-0.109 0.246,0.015 0.546,2.638 -0.393,4.952 -0.819,7.53 -0.529,3.203 0.38,6.365 -0.094,9.539 C 0.11,0.103 -0.01,0.079 0,0" /></g><g
           transform="translate(229.8281,245.4736)"
           id="g656"><path
             id="path658"
             style="fill:#27253d;fill-opacity:1;fill-rule:nonzero;stroke:none"
             d="m 0,0 c -0.409,-2.713 -2.396,-4.54 -2.919,-7.157 -0.437,-2.187 0.028,-4.398 -0.387,-6.591 -0.024,-0.125 0.15,-0.138 0.199,-0.045 1.042,1.972 0.829,4.028 1.085,6.177 0.317,2.668 1.769,4.972 2.125,7.606 C 0.111,0.056 0.01,0.065 0,0" /></g><g
           transform="translate(194.4463,213.2637)"
           id="g660"><path
             id="path662"
             style="fill:#27253d;fill-opacity:1;fill-rule:nonzero;stroke:none"
             d="m 0,0 c 1.345,-3.614 2.159,-7.64 3.853,-11.101 1.82,-3.718 4.116,-7.224 5.884,-10.981 0.052,-0.109 0.21,-0.049 0.195,0.064 -0.589,4.661 -2.345,7.599 -4.724,11.567 C 3.226,-7.146 2.85,-2.724 0.173,0.111 0.089,0.199 -0.041,0.109 0,0" /></g><g
           transform="translate(183.3408,190.5264)"
           id="g664"><path
             id="path666"
             style="fill:#27253d;fill-opacity:1;fill-rule:nonzero;stroke:none"
             d="m 0,0 c 1,-3.385 2.193,-7.189 4.521,-9.918 2.882,-3.376 6.731,-6.423 9.987,-9.425 0.156,-0.144 0.518,-0.06 0.433,0.207 -0.995,3.127 -3.784,5.353 -6.222,7.41 C 6.745,-10.06 4.844,-8.48 3.479,-6.265 2.229,-4.233 1.499,-1.953 0.273,0.09 0.195,0.219 -0.05,0.17 0,0" /></g><g
           id="g668"><g
             id="g670" /><g
             id="g708"><g
               id="g706"
               clip-path="url(#clipPath674)"><g
                 id="g704"><g
                   id="g696" /><g
                   id="g702"
                   mask="url(#mask680)"><g
                     id="g700"
                     transform="matrix(160,0,0,167,79,56)"><image
                       id="image698"
                       mask="url(#mask692)"
                       xlink:href="file:///home/xenia/%D0%97%D0%B0%D0%B3%D1%80%D1%83%D0%B7%D0%BA%D0%B8/2465933_img23.png"
                       transform="matrix(1,0,0,-1,0,1)"
                       preserveAspectRatio="none"
                       style="image-rendering:optimizeSpeed"
                       height="1"
                       width="1" /></g></g></g></g></g></g></g></g><g
       id="g710"><g
         id="g712"><g
           id="g718"><g
             id="g720"><path
               id="path730"
               style="fill:url(#radialGradient728);stroke:none"
               d="m 145.681,191.178 c -0.767,-0.968 -0.708,-1.976 -1.857,-2.714 v 0 c -1.205,-0.775 -3.569,-1.721 -5.039,-1.735 v 0 c -1.182,-0.011 -1.612,0.741 -2.67,0.928 v 0 c -1.188,0.209 -1.74,-0.606 -2.881,-0.803 v 0 c -0.497,-0.085 -0.951,-0.03 -1.385,0.025 v 0 c -0.703,0.088 -1.354,0.177 -2.048,-0.327 v 0 c -1.083,-0.787 -1.108,-2.427 -1.728,-3.404 v 0 c -4.107,1.678 -3.13,-2.227 -6.244,-3.896 v 0 c -1.439,-0.769 -2.805,-0.481 -4.153,-1.615 v 0 c -1.834,-1.543 -2.852,-3.186 -1.902,-5.366 v 0 c 1.501,-3.447 -0.101,-3.959 -2.457,-6.338 v 0 c -1.799,-1.818 -4.295,-6.52 -3.177,-8.978 v 0 c 0.485,-1.066 1.213,-1.89 1.573,-3.067 v 0 c 0.565,-1.843 0.377,-3.175 2.353,-3.987 v 0 c 1.657,-0.68 3.608,-0.44 5.342,-0.732 v 0 c 1.682,-0.283 3.195,-0.883 4.812,-1.388 v 0 c 2.883,-0.902 5.915,-0.87 8.771,-1.807 v 0 c 1.585,-0.52 3.08,-1.289 4.587,-1.983 v 0 c -4.887,-1.865 5.748,-6.224 6.945,-7.143 v 0 c 0.349,-0.269 0.663,-0.551 0.946,-0.848 v 0 h 63.44 c -0.06,2.439 -0.733,4.643 -1.234,7.41 v 0 c -0.686,3.793 0.229,8.166 -1.558,11.742 v 0 c -0.724,1.45 -2.81,3.286 -4.576,2.667 v 0 c 2.074,0.986 1.692,3.092 1.049,4.849 v 0 c -0.685,1.872 -1.548,3.457 -3.087,4.758 v 0 c -1.377,1.165 -2.967,1.565 -3.839,3.251 v 0 c -1.142,2.209 -1.458,3.957 -3.769,5.28 v 0 c -1.458,0.835 -3.074,0.958 -4.585,1.607 v 0 c -1.778,0.761 -2.204,2.199 -3.602,3.227 v 0 c -1.511,1.111 -3.357,0.378 -5.026,-0.077 v 0 c -2.149,-0.588 -4.499,-1.079 -6.125,-2.7 v 0 c -1.569,-1.563 -1.089,-4.31 -2.68,-5.638 v 0 c -0.654,-0.545 -1.818,-0.453 -2.507,-1.228 v 0 c -0.893,-1.006 -0.968,-2.764 -1.401,-3.987 v 0 c -0.752,-2.116 -1.783,-3.991 -2.955,-5.822 v 0 c 0.751,1.472 1.27,3.128 1.335,4.575 v 0 c 0.094,2.072 -0.965,2.354 -0.084,4.267 v 0 c 1.097,2.382 2.491,4.955 3.319,7.441 v 0 c 0.808,2.421 -0.611,4.667 -1.407,6.963 v 0 c -0.851,2.453 -3.374,2.292 -4.907,4.2 v 0 c -1.106,1.377 -2.076,3.019 -3.935,3.452 v 0 c -1.338,0.312 -2.549,-0.346 -3.878,-0.44 v 0 c -0.836,-0.06 -1.747,0.129 -2.664,0.318 v 0 c -0.8,0.165 -1.605,0.329 -2.371,0.329 v 0 c -1.02,0.001 -1.969,-0.292 -2.741,-1.266" /></g></g></g></g><g
       id="g732"><g
         clip-path="url(#clipPath738)"
         id="g734"><g
           transform="translate(151.2671,130)"
           id="g740"><path
             id="path742"
             style="fill:#27253d;fill-opacity:1;fill-rule:nonzero;stroke:none"
             d="m 0,0 c 1.303,1.587 1.601,3.324 2.291,5.218 1.069,2.94 3.016,5.342 4.437,8.101 2.585,5.022 2.587,10.867 5.085,16.009 0.046,0.097 -0.093,0.207 -0.172,0.13 C 8.326,26.195 7.758,21.242 6.511,16.937 5.681,14.071 4.402,11.581 3.236,8.858 1.986,5.939 1.721,2.766 -0.067,0.051 -0.096,0.006 -0.035,-0.042 0,0" /></g><g
           transform="translate(173.7402,169.1885)"
           id="g744"><path
             id="path746"
             style="fill:#27253d;fill-opacity:1;fill-rule:nonzero;stroke:none"
             d="m 0,0 c 5.376,4.481 8.818,-2.188 11.418,-5.621 1.159,-1.529 2.116,-2.42 3.052,-4.213 1.2,-2.301 0.899,-3.855 1.54,-6.245 0.286,-1.067 0.781,-1.793 1.174,-2.758 1.072,-2.629 1.244,-3.949 0.946,-6.587 -0.41,-3.637 0.515,-7.325 0.217,-11.051 -0.03,-0.364 0.477,-0.406 0.554,-0.061 0.697,3.102 0.439,4.99 0.197,8.008 -0.227,2.84 1.49,5.227 0.955,7.88 -0.439,2.182 -2.266,4.146 -2.99,6.235 -0.697,2.015 -0.948,3.992 -2.147,5.777 -1.384,2.062 -3.402,3.638 -4.825,5.818 -0.91,1.396 -1.678,2.57 -3.14,3.45 C 4.537,2.086 1.913,2.086 -0.04,0.039 -0.062,0.017 -0.024,-0.02 0,0" /></g><g
           transform="translate(166.1704,155.4424)"
           id="g748"><path
             id="path750"
             style="fill:#27253d;fill-opacity:1;fill-rule:nonzero;stroke:none"
             d="m 0,0 c 3.417,2.192 7.241,-2.236 9.827,-4.002 3.339,-2.279 3.85,-5.005 2.439,-8.708 -1.156,-3.032 -2.646,-5.863 -0.302,-8.714 0.151,-0.183 0.411,0.029 0.286,0.223 -3.593,5.581 5.185,11.474 -0.195,16.659 -1.124,1.083 -2.63,1.72 -3.889,2.619 C 6.815,-0.959 5.696,0.522 4.167,1.221 2.375,2.04 1.121,1.521 -0.079,0.078 -0.122,0.026 -0.05,-0.032 0,0" /></g><g
           transform="translate(163.1021,145.5332)"
           id="g752"><path
             id="path754"
             style="fill:#27253d;fill-opacity:1;fill-rule:nonzero;stroke:none"
             d="m 0,0 c 1.531,-1.533 0.061,-3.346 0.453,-5.155 0.157,-0.728 0.555,-1.342 0.857,-2.01 0.449,-0.994 0.493,-1.889 0.525,-2.964 0.008,-0.263 0.393,-0.268 0.481,-0.057 0.989,2.371 -1.074,3.49 -1.323,5.704 C 0.787,-2.65 1.852,-1.181 0.253,0.256 0.102,0.392 -0.146,0.146 0,0" /></g><g
           transform="translate(119.3657,154.0781)"
           id="g756"><path
             id="path758"
             style="fill:#27253d;fill-opacity:1;fill-rule:nonzero;stroke:none"
             d="m 0,0 c 0.752,3.61 2.184,4.941 4.766,6.966 1.004,0.786 1.211,0.87 1.906,1.991 0.642,1.033 0.63,2.239 1.193,3.266 2.644,4.823 3.921,2.377 6.964,3.611 3.193,1.296 3.833,5.077 7.122,6.557 3.762,1.693 9.493,-0.003 13.57,-0.084 0.105,-0.002 0.154,0.144 0.046,0.188 -3.725,1.517 -8.739,2.194 -12.687,1.081 C 21.573,23.207 20.271,22.531 19.252,21.623 18.45,20.909 18.095,20.087 17.385,19.357 15.661,17.588 14.339,17.012 12.013,16.307 7.898,15.062 8.276,13.935 6.618,10.29 5.394,7.602 2.78,7.115 1.152,5.005 0.113,3.658 -0.074,1.643 -0.277,0.031 -0.3,-0.149 -0.036,-0.173 0,0" /></g><g
           transform="translate(131.4487,148.417)"
           id="g760"><path
             id="path762"
             style="fill:#27253d;fill-opacity:1;fill-rule:nonzero;stroke:none"
             d="m 0,0 c 1.081,3.153 0.868,7.08 5.281,7.937 1.391,0.27 2.676,0.036 4.004,0.702 1.266,0.633 2.248,1.759 3.386,2.577 2.882,2.067 5.225,1.804 8.557,1.443 0.06,-0.006 0.089,0.089 0.027,0.108 -2.203,0.65 -4.219,1.968 -6.565,1.336 C 12.275,13.452 11.02,11.37 9.054,10.039 7.083,8.704 4.328,8.96 2.503,7.526 0.362,5.846 0.696,2.364 -0.156,0.062 -0.193,-0.039 -0.035,-0.102 0,0" /></g><g
           transform="translate(143.9038,142.3936)"
           id="g764"><path
             id="path766"
             style="fill:#27253d;fill-opacity:1;fill-rule:nonzero;stroke:none"
             d="M 0,0 C 0.195,1.627 2.259,2.422 3.531,3.002 5.477,3.889 7.057,4.239 8.941,2.963 9.142,2.826 9.428,3.021 9.323,3.262 8.31,5.591 5.077,4.698 3.384,3.726 2.237,3.065 -0.348,1.615 -0.055,-0.001 -0.05,-0.031 -0.004,-0.032 0,0" /></g><g
           id="g768"><g
             id="g770" /><g
             id="g808"><g
               id="g806"
               clip-path="url(#clipPath774)"><g
                 id="g804"><g
                   id="g796" /><g
                   id="g802"
                   mask="url(#mask780)"><g
                     id="g800"
                     transform="matrix(189,0,0,167,160,43)"><image
                       id="image798"
                       mask="url(#mask792)"
                       xlink:href="file:///home/xenia/%D0%97%D0%B0%D0%B3%D1%80%D1%83%D0%B7%D0%BA%D0%B8/2465933_img26.png"
                       transform="matrix(1,0,0,-1,0,1)"
                       preserveAspectRatio="none"
                       style="image-rendering:optimizeSpeed"
                       height="1"
                       width="1" /></g></g></g></g></g></g><g
           transform="translate(239.3452,116.9141)"
           id="g810"><path
             id="path812"
             style="fill:#326765;fill-opacity:1;fill-rule:nonzero;stroke:none"
             d="m 0,0 c 4.22,-0.648 8.744,-0.549 13.056,-1.274 5.773,-0.971 11.676,-3.94 16.451,-7.211 2.7,-1.849 6.45,-5.341 10.03,-4.127 1.212,0.411 1.869,1.589 3.191,1.982 2.031,0.602 4.002,0.016 5.893,1.431 4.207,3.149 6.018,10.657 8.718,15.047 3.184,5.176 6.579,9.864 9.055,15.468 3.073,6.958 3.173,14.263 5.477,21.35 1.326,4.08 4.219,7.733 7.017,10.804 -5.368,-0.901 -12.314,2.242 -17.269,4.077 -3.363,1.245 -6.264,3.004 -9.836,3.685 -6.817,1.302 -13.219,1.636 -20.16,1.051 C 26.001,61.809 20.55,61.054 15.24,59.05 9.434,56.858 2.754,54.545 -2.689,51.584 -5.984,49.79 -7.82,46.35 -11.07,44.526 c -4.07,-2.283 -5.317,-1.948 -7.305,-6.419 -1.223,-2.753 -3.778,-5.696 -1.703,-8.502 1.947,-2.631 5.231,-4.791 7.412,-7.37 3.511,-4.154 7.345,-8.931 10.212,-13.553 2.31,-3.726 1.516,-5.822 -1.118,-9.045 -4.38,-5.36 -7.699,-10.138 -13.117,-14.683 -6.719,-5.638 -13.263,-11.496 -19.98,-17.107 -3.729,-3.115 -7.614,-6.962 -12.154,-8.83 0.519,-0.991 1.14,-2.03 1.991,-2.788 10.721,7.972 20.205,17.753 30.911,25.837 5.176,3.909 9.422,6.789 12.514,12.597 C -2.495,-3.622 -1.357,-0.046 0,0" /></g><g
           transform="translate(245.1562,125.2383)"
           id="g814"><path
             id="path816"
             style="fill:#27253d;fill-opacity:1;fill-rule:nonzero;stroke:none"
             d="m 0,0 c 4.166,3.091 6.267,7.067 9.085,11.282 4.78,7.146 10.834,8.606 17.915,12.281 5.333,2.768 10.069,6.295 15.713,8.571 5.112,2.06 10.526,2.972 14.956,6.39 0.145,0.113 -0.011,0.372 -0.176,0.279 C 46.611,32.671 33.011,32.893 22.53,26.443 18.2,23.778 14.368,20.01 11.114,16.125 6.926,11.124 4.426,4.87 -0.213,0.254 -0.363,0.104 -0.173,-0.128 0,0" /></g><g
           transform="translate(253.7891,126.0869)"
           id="g818"><path
             id="path820"
             style="fill:#27253d;fill-opacity:1;fill-rule:nonzero;stroke:none"
             d="m 0,0 c 5.756,1.273 10.608,-0.707 15.733,-3.092 4.399,-2.048 8.958,-3.212 13.695,-4.182 0.149,-0.031 0.202,0.185 0.094,0.263 C 24.986,-3.702 18.477,-2.318 13.205,-0.48 8.929,1.01 4.309,1.64 -0.023,0.079 -0.068,0.063 -0.045,-0.01 0,0" /></g><g
           transform="translate(271.5693,140.0322)"
           id="g822"><path
             id="path824"
             style="fill:#27253d;fill-opacity:1;fill-rule:nonzero;stroke:none"
             d="m 0,0 c 4.34,-0.054 8.112,-1.511 12.278,-2.427 3.899,-0.857 7.972,0.128 11.955,-0.251 0.137,-0.012 0.192,0.203 0.053,0.241 -4.099,1.14 -8.57,1.277 -12.765,2.05 C 7.727,0.313 3.838,0.6 -0.007,0.164 -0.099,0.153 -0.095,0.001 0,0" /></g><g
           transform="translate(290.2793,152.8359)"
           id="g826"><path
             id="path828"
             style="fill:#27253d;fill-opacity:1;fill-rule:nonzero;stroke:none"
             d="m 0,0 c 4.491,-0.468 9.787,-1.835 13.699,1.17 0.094,0.072 0.02,0.251 -0.1,0.218 C 9.187,0.158 4.479,1.06 -0.014,0.328 -0.201,0.298 -0.187,0.02 0,0" /></g><g
           transform="translate(278.4854,175.9717)"
           id="g830"><path
             id="path832"
             style="fill:#27253d;fill-opacity:1;fill-rule:nonzero;stroke:none"
             d="m 0,0 c -1.296,-3.049 -4.17,-4.588 -5.571,-7.491 -1.171,-2.426 -1.293,-5.153 -2.44,-7.592 -0.065,-0.14 0.134,-0.207 0.22,-0.113 1.812,1.993 2.184,4.463 3.13,6.897 1.177,3.026 3.568,5.284 4.778,8.258 C 0.147,0.033 0.031,0.074 0,0" /></g><g
           transform="translate(255.1445,171.8867)"
           id="g834"><path
             id="path836"
             style="fill:#27253d;fill-opacity:1;fill-rule:nonzero;stroke:none"
             d="m 0,0 c -0.684,-3.795 -2.033,-7.674 -2.338,-11.515 -0.328,-4.127 -0.138,-8.313 -0.529,-12.447 -0.012,-0.121 0.155,-0.149 0.2,-0.044 1.867,4.311 1.853,7.735 1.826,12.36 -0.022,3.854 1.906,7.851 1.046,11.655 C 0.178,0.127 0.021,0.115 0,0" /></g><g
           transform="translate(234.0063,157.9756)"
           id="g838"><path
             id="path840"
             style="fill:#27253d;fill-opacity:1;fill-rule:nonzero;stroke:none"
             d="m 0,0 c -0.864,-3.422 -1.774,-7.304 -1.16,-10.837 0.76,-4.373 2.521,-8.956 3.794,-13.198 0.061,-0.203 0.415,-0.317 0.478,-0.041 0.737,3.196 -0.53,6.533 -1.58,9.545 -0.851,2.439 -1.682,4.766 -1.728,7.368 -0.041,2.385 0.491,4.72 0.477,7.101 C 0.28,0.09 0.043,0.173 0,0" /></g><g
           id="g842"><g
             id="g844" /><g
             id="g882"><g
               id="g880"
               clip-path="url(#clipPath848)"><g
                 id="g878"><g
                   id="g870" /><g
                   id="g876"
                   mask="url(#mask854)"><g
                     id="g874"
                     transform="matrix(134,0,0,140,20,54)"><image
                       id="image872"
                       mask="url(#mask866)"
                       xlink:href="file:///home/xenia/%D0%97%D0%B0%D0%B3%D1%80%D1%83%D0%B7%D0%BA%D0%B8/2465933_img29.png"
                       transform="matrix(1,0,0,-1,0,1)"
                       preserveAspectRatio="none"
                       style="image-rendering:optimizeSpeed"
                       height="1"
                       width="1" /></g></g></g></g></g></g><g
           transform="translate(92.9551,114.3623)"
           id="g884"><path
             id="path886"
             style="fill:#326765;fill-opacity:1;fill-rule:nonzero;stroke:none"
             d="m 0,0 c 0.241,2.803 -0.023,5.772 0.264,8.64 0.384,3.837 2.076,7.848 4.016,11.131 1.097,1.856 3.228,4.474 2.272,6.775 -0.323,0.778 -1.127,1.158 -1.443,2.011 -0.485,1.308 -0.186,2.63 -1.2,3.81 -2.255,2.627 -7.27,3.488 -10.275,5.071 -3.543,1.865 -6.774,3.89 -10.568,5.272 -4.709,1.714 -9.515,1.458 -14.275,2.66 -2.741,0.693 -5.27,2.435 -7.412,4.139 0.829,-3.489 -0.931,-8.195 -1.92,-11.532 -0.671,-2.266 -1.699,-4.25 -1.99,-6.628 -0.556,-4.538 -0.494,-8.762 0.196,-13.3 0.559,-3.674 1.295,-7.225 2.846,-10.627 1.696,-3.721 3.51,-8.01 5.697,-11.458 1.323,-2.088 3.666,-3.144 5.007,-5.199 1.681,-2.576 1.515,-3.411 4.542,-4.521 1.863,-0.682 3.91,-2.233 5.663,-0.745 1.645,1.396 2.92,3.649 4.52,5.196 2.576,2.492 5.548,5.222 8.461,7.31 2.347,1.683 3.76,1.253 5.995,-0.337 3.716,-2.644 7.003,-4.615 10.229,-7.978 4.001,-4.169 8.141,-8.212 12.125,-12.382 2.211,-2.315 4.912,-4.699 6.34,-7.601 0.627,0.385 1.284,0.838 1.744,1.431 C 25.122,-22.164 18.275,-16.36 12.49,-9.678 9.692,-6.446 7.612,-3.782 3.658,-2.005 2.491,-1.48 0.09,-0.891 0,0" /></g><g
           transform="translate(87.2271,117.8164)"
           id="g888"><path
             id="path890"
             style="fill:#27253d;fill-opacity:1;fill-rule:nonzero;stroke:none"
             d="m 0,0 c -2.215,2.603 -4.921,3.809 -7.816,5.477 -4.908,2.827 -6.134,6.743 -8.862,11.236 -2.054,3.385 -4.581,6.343 -6.325,9.953 -1.58,3.27 -2.417,6.789 -4.859,9.551 -0.08,0.091 -0.243,-0.024 -0.175,-0.128 4.51,-6.884 4.962,-15.835 9.663,-22.441 1.942,-2.729 4.588,-5.083 7.285,-7.05 C -7.617,4.063 -3.396,2.695 -0.157,-0.151 -0.052,-0.243 0.092,-0.108 0,0" /></g><g
           transform="translate(86.2896,123.4541)"
           id="g892"><path
             id="path894"
             style="fill:#27253d;fill-opacity:1;fill-rule:nonzero;stroke:none"
             d="m 0,0 c -1.09,3.729 -0.002,7.005 1.341,10.479 1.152,2.982 1.717,6.03 2.147,9.186 C 3.501,19.766 3.357,19.79 3.311,19.716 1.335,16.589 0.712,12.249 -0.265,8.702 -1.056,5.825 -1.268,2.761 -0.051,-0.019 -0.039,-0.048 0.008,-0.029 0,0" /></g><g
           transform="translate(76.3403,134.5293)"
           id="g896"><path
             id="path898"
             style="fill:#27253d;fill-opacity:1;fill-rule:nonzero;stroke:none"
             d="m 0,0 c -0.156,2.855 0.636,5.399 1.055,8.179 0.392,2.6 -0.435,5.235 -0.361,7.87 C 0.697,16.14 0.553,16.166 0.533,16.073 -0.036,13.328 0.072,10.383 -0.253,7.591 -0.546,5.065 -0.563,2.497 -0.108,-0.012 -0.097,-0.071 0.003,-0.062 0,0" /></g><g
           transform="translate(67.1001,146.2666)"
           id="g900"><path
             id="path902"
             style="fill:#27253d;fill-opacity:1;fill-rule:nonzero;stroke:none"
             d="M 0,0 C 0.11,2.973 0.776,6.515 -1.372,8.954 -1.423,9.013 -1.538,8.956 -1.51,8.878 -0.508,6.031 -0.893,2.898 -0.215,-0.023 -0.187,-0.146 -0.004,-0.124 0,0" /></g><g
           transform="translate(52.4092,137.4951)"
           id="g904"><path
             id="path906"
             style="fill:#27253d;fill-opacity:1;fill-rule:nonzero;stroke:none"
             d="m 0,0 c 2.062,-0.718 3.2,-2.539 5.17,-3.333 1.646,-0.663 3.444,-0.623 5.099,-1.27 0.094,-0.037 0.129,0.098 0.064,0.15 -1.39,1.103 -3.03,1.239 -4.672,1.754 C 3.621,-2.059 2.03,-0.585 0.022,0.079 -0.027,0.096 -0.049,0.018 0,0" /></g><g
           transform="translate(56.1216,122.3311)"
           id="g908"><path
             id="path910"
             style="fill:#27253d;fill-opacity:1;fill-rule:nonzero;stroke:none"
             d="m 0,0 c 2.525,-0.283 5.134,-0.999 7.672,-1.03 2.728,-0.034 5.472,0.274 8.206,0.199 0.08,-0.002 0.092,0.108 0.02,0.134 C 12.982,0.341 10.733,0.18 7.693,-0.041 5.16,-0.225 2.448,0.867 -0.015,0.134 -0.091,0.111 -0.077,0.008 0,0" /></g><g
           transform="translate(66.1963,109.0469)"
           id="g912"><path
             id="path914"
             style="fill:#27253d;fill-opacity:1;fill-rule:nonzero;stroke:none"
             d="m 0,0 c 2.288,-0.417 4.879,-0.846 7.175,-0.286 2.842,0.692 5.777,2.051 8.51,3.074 0.131,0.049 0.19,0.287 0.006,0.316 C 13.557,3.448 11.419,2.469 9.485,1.646 7.919,0.979 6.426,0.33 4.718,0.186 3.152,0.054 1.593,0.302 0.028,0.187 -0.071,0.18 -0.115,0.021 0,0" /></g></g></g></g></svg>